M48
;Layer_Color=9474304
;FILE_FORMAT=2:4
INCH,LZ
;TYPE=PLATED
T1F00S00C0.0200
T2F00S00C0.0350
T3F00S00C0.0402
T4F00S00C0.0433
T5F00S00C0.0472
T6F00S00C0.1260
;TYPE=NON_PLATED
T7F00S00C0.0354
%
T01
X04755Y01385
X04645Y0243
X03175Y0244
X03205Y01565
X02655Y02235
X0274Y02765
X011028Y044542
X0237Y03785
X02545Y03545
X0261Y0352
X02815Y03545
X031958Y035767
X03555Y032773
X03855Y03575
X03885Y04425
X03845Y04655
X0367Y0464
X04424Y044182
X04474
X04545Y0453
X0436Y04095
X043Y04115
X04265Y0409
X04615Y04945
X0466
X03574Y047532
X0343Y0478
X03025Y0499
X02995Y05045
X028762Y054062
X02555Y05345
X018778Y057742
X012Y05025
X0113Y04935
T02
X0207Y015074
X0217
X0227
X0373Y015024
X0383
X0393
T03
X02845Y0125
X02945
X03045
X0305Y015
X0295
X03145Y0125
X04115Y0104
X04215
X047595Y02233
Y02333
X0124Y02315
Y02215
X01205Y03345
Y03445
Y03545
Y03645
X0267Y0457
Y0467
X0327
Y0457
X04075Y04595
X04375
X04795Y0364
Y0354
Y0344
Y0334
Y055
Y056
Y057
Y058
X04375Y04895
Y04795
Y04695
X04075
Y04795
Y04895
X0327Y0487
Y0477
Y0497
Y0507
Y0517
Y0527
Y0537
Y0547
Y0557
Y0567
Y0577
Y0587
Y0597
X0342
Y0587
Y0577
Y0567
X0267
Y0557
Y0547
Y0537
Y0527
Y0517
Y0507
Y0497
Y0487
Y0477
Y0577
Y0587
Y0597
T04
X04895Y0097
Y0107
Y0117
X0251Y0577
Y0587
Y0597
T05
X038311Y018161
Y019539
X03065Y02115
X029272
X021789Y019589
Y018211
T06
X03Y01
X01Y035
X05
T07
X04945Y014119
Y0153
M30
