G04*
G04 #@! TF.GenerationSoftware,Altium Limited,Altium Designer,22.4.2 (48)*
G04*
G04 Layer_Color=255*
%FSLAX24Y24*%
%MOIN*%
G70*
G04*
G04 #@! TF.SameCoordinates,ADE9840D-4DCF-43C8-90FB-517E77D495FD*
G04*
G04*
G04 #@! TF.FilePolarity,Positive*
G04*
G01*
G75*
%ADD49C,0.0618*%
%ADD50R,0.0618X0.0618*%
%ADD53R,0.0618X0.0618*%
%ADD54C,0.0354*%
%ADD60R,0.0701X0.0902*%
%ADD63C,0.0709*%
%ADD64R,0.0709X0.0709*%
%ADD65R,0.0610X0.0610*%
%ADD66C,0.0610*%
%ADD67R,0.0610X0.0610*%
%ADD68C,0.2250*%
%ADD69R,0.0709X0.0709*%
%ADD70R,0.0630X0.0630*%
%ADD71C,0.0630*%
D49*
X33250Y19250D02*
D03*
X26700Y45700D02*
D03*
Y46700D02*
D03*
Y47700D02*
D03*
Y48700D02*
D03*
Y49700D02*
D03*
Y50700D02*
D03*
Y51700D02*
D03*
Y52700D02*
D03*
Y53700D02*
D03*
Y54700D02*
D03*
Y55700D02*
D03*
Y56700D02*
D03*
Y57700D02*
D03*
Y58700D02*
D03*
X32700Y45700D02*
D03*
Y46700D02*
D03*
Y47700D02*
D03*
Y48700D02*
D03*
Y49700D02*
D03*
Y50700D02*
D03*
Y51700D02*
D03*
Y52700D02*
D03*
Y53700D02*
D03*
Y54700D02*
D03*
Y55700D02*
D03*
Y56700D02*
D03*
Y57700D02*
D03*
Y58700D02*
D03*
X29500Y15000D02*
D03*
X47595Y22330D02*
D03*
X41150Y10400D02*
D03*
X12400Y23150D02*
D03*
D50*
X34250Y19250D02*
D03*
X30500Y15000D02*
D03*
X42150Y10400D02*
D03*
D53*
X26700Y59700D02*
D03*
X32700D02*
D03*
X47595Y23330D02*
D03*
X12400Y22150D02*
D03*
D54*
X49450Y15300D02*
D03*
Y14119D02*
D03*
D60*
X20700Y15074D02*
D03*
X21700D02*
D03*
X22700D02*
D03*
X37300Y15024D02*
D03*
X38300D02*
D03*
X39300D02*
D03*
D63*
X30650Y18750D02*
D03*
X38311Y19539D02*
D03*
X21789Y18211D02*
D03*
D64*
X29272Y18750D02*
D03*
D65*
X47950Y55000D02*
D03*
X43750Y48950D02*
D03*
X40750D02*
D03*
X34200Y59700D02*
D03*
X12050Y36450D02*
D03*
X47950Y33400D02*
D03*
D66*
Y56000D02*
D03*
Y57000D02*
D03*
Y58000D02*
D03*
X29450Y12500D02*
D03*
X30450D02*
D03*
X31450D02*
D03*
X43750Y47950D02*
D03*
Y46950D02*
D03*
Y45950D02*
D03*
X40750Y47950D02*
D03*
Y46950D02*
D03*
Y45950D02*
D03*
X34200Y58700D02*
D03*
Y57700D02*
D03*
Y56700D02*
D03*
X12050Y35450D02*
D03*
Y34450D02*
D03*
Y33450D02*
D03*
X47950Y34400D02*
D03*
Y35400D02*
D03*
Y36400D02*
D03*
D67*
X28450Y12500D02*
D03*
D68*
X10000Y35000D02*
D03*
X50000D02*
D03*
X30000Y10000D02*
D03*
D69*
X38311Y18161D02*
D03*
X21789Y19589D02*
D03*
D70*
X48950Y9700D02*
D03*
X25100Y57700D02*
D03*
D71*
X48950Y10700D02*
D03*
Y11700D02*
D03*
X25100Y58700D02*
D03*
Y59700D02*
D03*
M02*
