G04*
G04 #@! TF.GenerationSoftware,Altium Limited,Altium Designer,22.4.2 (48)*
G04*
G04 Layer_Color=32768*
%FSLAX24Y24*%
%MOIN*%
G70*
G04*
G04 #@! TF.SameCoordinates,ADE9840D-4DCF-43C8-90FB-517E77D495FD*
G04*
G04*
G04 #@! TF.FilePolarity,Positive*
G04*
G01*
G75*
%ADD13C,0.0079*%
%ADD73C,0.0039*%
%ADD74C,0.0020*%
D13*
X34888Y18691D02*
Y19809D01*
X32612D02*
X34888D01*
X32612Y18691D02*
Y19809D01*
Y18691D02*
X34888D01*
X17509Y9730D02*
Y12170D01*
X13691D02*
X17509D01*
X13691Y9730D02*
Y12170D01*
Y9730D02*
X17509D01*
X39822Y59906D02*
Y60694D01*
X37578D02*
X39822D01*
X37578Y59906D02*
Y60694D01*
Y59906D02*
X39822D01*
X37410Y59975D02*
Y60625D01*
X36190D02*
X37410D01*
X36190Y59975D02*
Y60625D01*
Y59975D02*
X37410D01*
X26135Y45086D02*
X27265D01*
Y60314D01*
X26135D02*
X27265D01*
X26135Y45086D02*
Y60314D01*
X32135Y45086D02*
X33265D01*
Y60314D01*
X32135D02*
X33265D01*
X32135Y45086D02*
Y60314D01*
X9475Y45590D02*
X10125D01*
Y46810D01*
X9475D02*
X10125D01*
X9475Y45590D02*
Y46810D01*
X9425Y14590D02*
X10075D01*
Y15810D01*
X9425D02*
X10075D01*
X9425Y14590D02*
Y15810D01*
X50375Y31260D02*
X51025D01*
X50375Y30040D02*
Y31260D01*
Y30040D02*
X51025D01*
Y31260D01*
X50275Y18810D02*
X50925D01*
X50275Y17590D02*
Y18810D01*
Y17590D02*
X50925D01*
Y18810D01*
X50175Y51460D02*
X50825D01*
X50175Y50240D02*
Y51460D01*
Y50240D02*
X50825D01*
Y51460D01*
X9575Y28110D02*
X10225D01*
X9575Y26890D02*
Y28110D01*
Y26890D02*
X10225D01*
Y28110D01*
X25510Y9125D02*
Y9775D01*
X24290D02*
X25510D01*
X24290Y9125D02*
Y9775D01*
Y9125D02*
X25510D01*
X50306Y33622D02*
X51094D01*
X50306Y31378D02*
Y33622D01*
Y31378D02*
X51094D01*
Y33622D01*
X27922Y9056D02*
Y9844D01*
X25678D02*
X27922D01*
X25678Y9056D02*
Y9844D01*
Y9056D02*
X27922D01*
X50206Y21222D02*
X50994D01*
X50206Y18978D02*
Y21222D01*
Y18978D02*
X50994D01*
Y21222D01*
X50106Y53822D02*
X50894D01*
X50106Y51578D02*
Y53822D01*
Y51578D02*
X50894D01*
Y53822D01*
X9406Y43228D02*
X10194D01*
Y45472D01*
X9406D02*
X10194D01*
X9406Y43228D02*
Y45472D01*
X9506Y30472D02*
X10294D01*
X9506Y28228D02*
Y30472D01*
Y28228D02*
X10294D01*
Y30472D01*
X9356Y12228D02*
X10144D01*
Y14472D01*
X9356D02*
X10144D01*
X9356Y12228D02*
Y14472D01*
X48426Y13036D02*
X50592D01*
Y16383D01*
X48426D02*
X50592D01*
X48426Y13036D02*
Y16383D01*
X37015Y47099D02*
X37685D01*
Y48201D01*
X37015D02*
X37685D01*
X37015Y47099D02*
Y48201D01*
Y48449D02*
X37685D01*
Y49551D01*
X37015D02*
X37685D01*
X37015Y48449D02*
Y49551D01*
X40794Y42851D02*
Y44249D01*
Y42851D02*
X42330D01*
Y44249D01*
X40794D02*
X42330D01*
X9254Y53423D02*
Y60037D01*
Y53423D02*
X13546D01*
Y60037D01*
X9254D02*
X13546D01*
X13711Y53361D02*
Y60439D01*
Y53361D02*
X18289D01*
Y60439D01*
X13711D02*
X18289D01*
X12001Y52215D02*
Y52885D01*
X10899D02*
X12001D01*
X10899Y52215D02*
Y52885D01*
Y52215D02*
X12001D01*
X10701D02*
Y52885D01*
X9599D02*
X10701D01*
X9599Y52215D02*
Y52885D01*
Y52215D02*
X10701D01*
X19661Y10046D02*
Y15564D01*
Y10046D02*
X23739D01*
Y15564D01*
X19661D02*
X23739D01*
X36261Y9996D02*
Y15514D01*
Y9996D02*
X40339D01*
Y15514D01*
X36261D02*
X40339D01*
X31138Y14441D02*
Y15559D01*
X28862D02*
X31138D01*
X28862Y14441D02*
Y15559D01*
Y14441D02*
X31138D01*
X47036Y23968D02*
X48154D01*
X47036Y21692D02*
Y23968D01*
Y21692D02*
X48154D01*
Y23968D01*
X42788Y9841D02*
Y10959D01*
X40512D02*
X42788D01*
X40512Y9841D02*
Y10959D01*
Y9841D02*
X42788D01*
X11841Y21512D02*
X12959D01*
Y23788D01*
X11841D02*
X12959D01*
X11841Y21512D02*
Y23788D01*
X46069Y22109D02*
X46821D01*
Y23451D01*
X46069D02*
X46821D01*
X46069Y22109D02*
Y23451D01*
X42321Y8924D02*
Y9676D01*
X40979D02*
X42321D01*
X40979Y8924D02*
Y9676D01*
Y8924D02*
X42321D01*
X13174Y21979D02*
X13926D01*
Y23321D01*
X13174D02*
X13926D01*
X13174Y21979D02*
Y23321D01*
D73*
X33250Y17313D02*
Y17687D01*
X33063Y17500D02*
X33437D01*
X33250Y16213D02*
Y16587D01*
X33063Y16400D02*
X33437D01*
X34053Y16376D02*
X34447D01*
X34250Y16179D02*
Y16572D01*
X34053Y17500D02*
X34447D01*
X34250Y17303D02*
Y17697D01*
X27150Y17663D02*
Y18037D01*
X26963Y17850D02*
X27337D01*
X27150Y16569D02*
Y16943D01*
X26963Y16756D02*
X27337D01*
X25953Y16726D02*
X26347D01*
X26150Y16529D02*
Y16922D01*
X25953Y17850D02*
X26347D01*
X26150Y17653D02*
Y18047D01*
X18050Y10753D02*
Y11147D01*
X17853Y10950D02*
X18247D01*
X45587Y42950D02*
X45981D01*
X45784Y42753D02*
Y43147D01*
X45800Y43553D02*
Y43947D01*
X45603Y43750D02*
X45997D01*
X43103Y42700D02*
X43497D01*
X43300Y42503D02*
Y42897D01*
X43103Y41700D02*
X43497D01*
X43300Y41503D02*
Y41897D01*
X41403Y41250D02*
X41797D01*
X41600Y41053D02*
Y41447D01*
X41553Y44750D02*
X41947D01*
X41750Y44553D02*
Y44947D01*
X36450Y47453D02*
Y47847D01*
X36253Y47650D02*
X36647D01*
X44903Y46900D02*
X45297D01*
X45100Y46703D02*
Y47097D01*
X47453Y47950D02*
X47847D01*
X47650Y47753D02*
Y48147D01*
X44903Y47950D02*
X45297D01*
X45100Y47753D02*
Y48147D01*
X36450Y48803D02*
Y49197D01*
X36253Y49000D02*
X36647D01*
X45103D02*
X45497D01*
X45300Y48803D02*
Y49197D01*
X45603Y44600D02*
X45997D01*
X45800Y44403D02*
Y44797D01*
X47453Y49600D02*
X47847D01*
X47650Y49403D02*
Y49797D01*
X45103Y49950D02*
X45497D01*
X45300Y49753D02*
Y50147D01*
X39209Y48950D02*
X39602D01*
X39406Y48753D02*
Y49147D01*
X47650Y48553D02*
Y48947D01*
X47453Y48750D02*
X47847D01*
X43103Y43750D02*
X43497D01*
X43300Y43553D02*
Y43947D01*
X43103Y44600D02*
X43497D01*
X43300Y44403D02*
Y44797D01*
X44903Y45950D02*
X45297D01*
X45100Y45753D02*
Y46147D01*
X39203Y47950D02*
X39597D01*
X39400Y47753D02*
Y48147D01*
X39003Y44950D02*
X39397D01*
X39200Y44753D02*
Y45147D01*
X39003Y45850D02*
X39397D01*
X39200Y45653D02*
Y46047D01*
X39203Y46950D02*
X39597D01*
X39400Y46753D02*
Y47147D01*
X41403Y42100D02*
X41797D01*
X41600Y41903D02*
Y42297D01*
X12603Y52550D02*
X12997D01*
X12800Y52353D02*
Y52747D01*
D74*
X32955Y16988D02*
X33545D01*
X32955Y18012D02*
X33545D01*
X32955Y16988D02*
Y18012D01*
X33545Y16988D02*
Y18012D01*
X32955Y15888D02*
X33545D01*
X32955Y16912D02*
X33545D01*
X32955Y15888D02*
Y16912D01*
X33545Y15888D02*
Y16912D01*
X34585Y15844D02*
Y16907D01*
X33915Y15844D02*
Y16907D01*
X34585D01*
X33915Y15844D02*
X34585D01*
Y16968D02*
Y18032D01*
X33915Y16968D02*
Y18032D01*
X34585D01*
X33915Y16968D02*
X34585D01*
X26855Y17338D02*
X27445D01*
X26855Y18362D02*
X27445D01*
X26855Y17338D02*
Y18362D01*
X27445Y17338D02*
Y18362D01*
X26855Y16244D02*
X27445D01*
X26855Y17268D02*
X27445D01*
X26855Y16244D02*
Y17268D01*
X27445Y16244D02*
Y17268D01*
X26485Y16194D02*
Y17257D01*
X25815Y16194D02*
Y17257D01*
X26485D01*
X25815Y16194D02*
X26485D01*
X25815Y17319D02*
Y18382D01*
X26485Y17319D02*
Y18382D01*
X25815Y17319D02*
X26485D01*
X25815Y18382D02*
X26485D01*
X29961Y18514D02*
Y18907D01*
X29764Y18711D02*
X30158D01*
X28307Y17254D02*
Y20167D01*
Y17254D02*
X31615D01*
Y20167D01*
X28307D02*
X31615D01*
X17656Y11619D02*
X18444D01*
X17656Y10281D02*
X18444D01*
Y11619D01*
X17656Y10281D02*
Y11619D01*
X47361Y58663D02*
X48539D01*
Y54337D02*
Y58663D01*
X47361Y54337D02*
X48539D01*
X47361D02*
Y58663D01*
X32113Y11911D02*
Y13089D01*
X27787Y11911D02*
X32113D01*
X27787D02*
Y13089D01*
X32113D01*
X43161Y45287D02*
X44339D01*
X43161D02*
Y49613D01*
X44339D01*
Y45287D02*
Y49613D01*
X40161Y45287D02*
X41339D01*
X40161D02*
Y49613D01*
X41339D01*
Y45287D02*
Y49613D01*
X44937Y42438D02*
Y43462D01*
X46630Y42438D02*
Y43462D01*
X44937D02*
X46630D01*
X44937Y42438D02*
X46630D01*
X45229Y43396D02*
X46371D01*
X45229Y44104D02*
X46371D01*
Y43396D02*
Y44104D01*
X45229Y43396D02*
Y44104D01*
X43969Y42306D02*
Y43094D01*
X42631Y42306D02*
Y43094D01*
Y42306D02*
X43969D01*
X42631Y43094D02*
X43969D01*
Y41306D02*
Y42094D01*
X42631Y41306D02*
Y42094D01*
Y41306D02*
X43969D01*
X42631Y42094D02*
X43969D01*
X40931Y40856D02*
Y41644D01*
X42269Y40856D02*
Y41644D01*
X40931D02*
X42269D01*
X40931Y40856D02*
X42269D01*
X42419Y44356D02*
Y45144D01*
X41081Y44356D02*
Y45144D01*
Y44356D02*
X42419D01*
X41081Y45144D02*
X42419D01*
X36056Y46981D02*
X36844D01*
X36056Y48319D02*
X36844D01*
X36056Y46981D02*
Y48319D01*
X36844Y46981D02*
Y48319D01*
X44431Y46506D02*
Y47294D01*
X45769Y46506D02*
Y47294D01*
X44431D02*
X45769D01*
X44431Y46506D02*
X45769D01*
X48319Y47556D02*
Y48344D01*
X46981Y47556D02*
Y48344D01*
Y47556D02*
X48319D01*
X46981Y48344D02*
X48319D01*
X44431Y47556D02*
Y48344D01*
X45769Y47556D02*
Y48344D01*
X44431D02*
X45769D01*
X44431Y47556D02*
X45769D01*
X36056Y49669D02*
X36844D01*
X36056Y48331D02*
X36844D01*
Y49669D01*
X36056Y48331D02*
Y49669D01*
X44631Y48606D02*
Y49394D01*
X45969Y48606D02*
Y49394D01*
X44631D02*
X45969D01*
X44631Y48606D02*
X45969D01*
X46646Y44088D02*
Y45112D01*
X44954Y44088D02*
Y45112D01*
Y44088D02*
X46646D01*
X44954Y45112D02*
X46646D01*
X48496Y49088D02*
Y50112D01*
X46804Y49088D02*
Y50112D01*
Y49088D02*
X48496D01*
X46804Y50112D02*
X48496D01*
X44631Y49556D02*
Y50344D01*
X45969Y49556D02*
Y50344D01*
X44631D02*
X45969D01*
X44631Y49556D02*
X45969D01*
X38736Y48556D02*
Y49344D01*
X40075Y48556D02*
Y49344D01*
X38736D02*
X40075D01*
X38736Y48556D02*
X40075D01*
X47079Y48396D02*
X48221D01*
X47079Y49104D02*
X48221D01*
Y48396D02*
Y49104D01*
X47079Y48396D02*
Y49104D01*
X42631Y43356D02*
Y44144D01*
X43969Y43356D02*
Y44144D01*
X42631D02*
X43969D01*
X42631Y43356D02*
X43969D01*
X43969Y44206D02*
Y44994D01*
X42631Y44206D02*
Y44994D01*
Y44206D02*
X43969D01*
X42631Y44994D02*
X43969D01*
X44431Y45556D02*
Y46344D01*
X45769Y45556D02*
Y46344D01*
X44431D02*
X45769D01*
X44431Y45556D02*
X45769D01*
X38731Y47556D02*
Y48344D01*
X40069Y47556D02*
Y48344D01*
X38731D02*
X40069D01*
X38731Y47556D02*
X40069D01*
X38531Y44556D02*
Y45344D01*
X39869Y44556D02*
Y45344D01*
X38531D02*
X39869D01*
X38531Y44556D02*
X39869D01*
X38531Y45456D02*
Y46244D01*
X39869Y45456D02*
Y46244D01*
X38531D02*
X39869D01*
X38531Y45456D02*
X39869D01*
X38731Y46556D02*
Y47344D01*
X40069Y46556D02*
Y47344D01*
X38731D02*
X40069D01*
X38731Y46556D02*
X40069D01*
X42269Y41706D02*
Y42494D01*
X40931Y41706D02*
Y42494D01*
Y41706D02*
X42269D01*
X40931Y42494D02*
X42269D01*
X12131Y52156D02*
Y52944D01*
X13469Y52156D02*
Y52944D01*
X12131D02*
X13469D01*
X12131Y52156D02*
X13469D01*
X38153Y18850D02*
X38547D01*
X38350Y18653D02*
Y19047D01*
X36893Y17196D02*
X39807D01*
Y20504D01*
X36893D02*
X39807D01*
X36893Y17196D02*
Y20504D01*
X21553Y18900D02*
X21947D01*
X21750Y18703D02*
Y19097D01*
X20293Y20554D02*
X23207D01*
X20293Y17246D02*
Y20554D01*
Y17246D02*
X23207D01*
Y20554D01*
X33611Y56037D02*
X34789D01*
X33611D02*
Y60363D01*
X34789D01*
Y56037D02*
Y60363D01*
X11461Y32787D02*
X12639D01*
X11461D02*
Y37113D01*
X12639D01*
Y32787D02*
Y37113D01*
X47361Y37063D02*
X48539D01*
Y32737D02*
Y37063D01*
X47361Y32737D02*
X48539D01*
X47361D02*
Y37063D01*
X48950Y10503D02*
Y10897D01*
X48753Y10700D02*
X49147D01*
X48342Y9062D02*
Y12338D01*
X49558D01*
Y9062D02*
Y12338D01*
X48342Y9062D02*
X49558D01*
X25100Y58503D02*
Y58897D01*
X24903Y58700D02*
X25297D01*
X24492Y57062D02*
Y60338D01*
X25708D01*
Y57062D02*
Y60338D01*
X24492Y57062D02*
X25708D01*
M02*
