G04*
G04 #@! TF.GenerationSoftware,Altium Limited,Altium Designer,22.4.2 (48)*
G04*
G04 Layer_Color=128*
%FSLAX24Y24*%
%MOIN*%
G70*
G04*
G04 #@! TF.SameCoordinates,ADE9840D-4DCF-43C8-90FB-517E77D495FD*
G04*
G04*
G04 #@! TF.FilePolarity,Positive*
G04*
G01*
G75*
%ADD75C,0.0020*%
D75*
X33049Y19250D02*
X33451D01*
X33250Y19049D02*
Y19451D01*
X34049Y19250D02*
X34451D01*
X34250Y19049D02*
Y19451D01*
X30414Y18750D02*
X30886D01*
X30650Y18514D02*
Y18986D01*
X29036Y18750D02*
X29508D01*
X29272Y18514D02*
Y18986D01*
X26499Y45700D02*
X26901D01*
X26700Y45499D02*
Y45901D01*
X26499Y46700D02*
X26901D01*
X26700Y46499D02*
Y46901D01*
X26499Y47700D02*
X26901D01*
X26700Y47499D02*
Y47901D01*
X26499Y48700D02*
X26901D01*
X26700Y48499D02*
Y48901D01*
X26499Y49700D02*
X26901D01*
X26700Y49499D02*
Y49901D01*
X26499Y50700D02*
X26901D01*
X26700Y50499D02*
Y50901D01*
X26499Y51700D02*
X26901D01*
X26700Y51499D02*
Y51901D01*
X26499Y52700D02*
X26901D01*
X26700Y52499D02*
Y52901D01*
X26499Y53700D02*
X26901D01*
X26700Y53499D02*
Y53901D01*
X26499Y54700D02*
X26901D01*
X26700Y54499D02*
Y54901D01*
X26499Y55700D02*
X26901D01*
X26700Y55499D02*
Y55901D01*
X26499Y56700D02*
X26901D01*
X26700Y56499D02*
Y56901D01*
X26499Y57700D02*
X26901D01*
X26700Y57499D02*
Y57901D01*
X26499Y58700D02*
X26901D01*
X26700Y58499D02*
Y58901D01*
X26499Y59700D02*
X26901D01*
X26700Y59499D02*
Y59901D01*
X32499Y45700D02*
X32901D01*
X32700Y45499D02*
Y45901D01*
X32499Y46700D02*
X32901D01*
X32700Y46499D02*
Y46901D01*
X32499Y47700D02*
X32901D01*
X32700Y47499D02*
Y47901D01*
X32499Y48700D02*
X32901D01*
X32700Y48499D02*
Y48901D01*
X32499Y49700D02*
X32901D01*
X32700Y49499D02*
Y49901D01*
X32499Y50700D02*
X32901D01*
X32700Y50499D02*
Y50901D01*
X32499Y51700D02*
X32901D01*
X32700Y51499D02*
Y51901D01*
X32499Y52700D02*
X32901D01*
X32700Y52499D02*
Y52901D01*
X32499Y53700D02*
X32901D01*
X32700Y53499D02*
Y53901D01*
X32499Y54700D02*
X32901D01*
X32700Y54499D02*
Y54901D01*
X32499Y55700D02*
X32901D01*
X32700Y55499D02*
Y55901D01*
X32499Y56700D02*
X32901D01*
X32700Y56499D02*
Y56901D01*
X32499Y57700D02*
X32901D01*
X32700Y57499D02*
Y57901D01*
X32499Y58700D02*
X32901D01*
X32700Y58499D02*
Y58901D01*
X32499Y59700D02*
X32901D01*
X32700Y59499D02*
Y59901D01*
X49273Y15300D02*
X49627D01*
X49450Y15123D02*
Y15477D01*
X49273Y14119D02*
X49627D01*
X49450Y13942D02*
Y14296D01*
X47749Y55000D02*
X48151D01*
X47950Y54799D02*
Y55201D01*
X47749Y56000D02*
X48151D01*
X47950Y55799D02*
Y56201D01*
X47749Y57000D02*
X48151D01*
X47950Y56799D02*
Y57201D01*
X47749Y58000D02*
X48151D01*
X47950Y57799D02*
Y58201D01*
X28249Y12500D02*
X28651D01*
X28450Y12299D02*
Y12701D01*
X29249Y12500D02*
X29651D01*
X29450Y12299D02*
Y12701D01*
X30249Y12500D02*
X30651D01*
X30450Y12299D02*
Y12701D01*
X31249Y12500D02*
X31651D01*
X31450Y12299D02*
Y12701D01*
X43549Y48950D02*
X43951D01*
X43750Y48749D02*
Y49151D01*
X43549Y47950D02*
X43951D01*
X43750Y47749D02*
Y48151D01*
X43549Y46950D02*
X43951D01*
X43750Y46749D02*
Y47151D01*
X43549Y45950D02*
X43951D01*
X43750Y45749D02*
Y46151D01*
X40549Y48950D02*
X40951D01*
X40750Y48749D02*
Y49151D01*
X40549Y47950D02*
X40951D01*
X40750Y47749D02*
Y48151D01*
X40549Y46950D02*
X40951D01*
X40750Y46749D02*
Y47151D01*
X40549Y45950D02*
X40951D01*
X40750Y45749D02*
Y46151D01*
X9370Y35000D02*
X10630D01*
X10000Y34370D02*
Y35630D01*
X49370Y35000D02*
X50630D01*
X50000Y34370D02*
Y35630D01*
X29370Y10000D02*
X30630D01*
X30000Y9370D02*
Y10630D01*
X38074Y19539D02*
X38547D01*
X38311Y19303D02*
Y19775D01*
X38074Y18161D02*
X38547D01*
X38311Y17925D02*
Y18397D01*
X21553Y18211D02*
X22026D01*
X21789Y17975D02*
Y18447D01*
X21553Y19589D02*
X22026D01*
X21789Y19353D02*
Y19825D01*
X20525Y15074D02*
X20875D01*
X20700Y14898D02*
Y15249D01*
X21525Y15074D02*
X21875D01*
X21700Y14898D02*
Y15249D01*
X22525Y15074D02*
X22875D01*
X22700Y14898D02*
Y15249D01*
X37125Y15024D02*
X37475D01*
X37300Y14848D02*
Y15199D01*
X38125Y15024D02*
X38475D01*
X38300Y14848D02*
Y15199D01*
X39125Y15024D02*
X39475D01*
X39300Y14848D02*
Y15199D01*
X29299Y15000D02*
X29701D01*
X29500Y14799D02*
Y15201D01*
X30299Y15000D02*
X30701D01*
X30500Y14799D02*
Y15201D01*
X33999Y59700D02*
X34401D01*
X34200Y59499D02*
Y59901D01*
X33999Y58700D02*
X34401D01*
X34200Y58499D02*
Y58901D01*
X33999Y57700D02*
X34401D01*
X34200Y57499D02*
Y57901D01*
X33999Y56700D02*
X34401D01*
X34200Y56499D02*
Y56901D01*
X11849Y36450D02*
X12251D01*
X12050Y36249D02*
Y36651D01*
X11849Y35450D02*
X12251D01*
X12050Y35249D02*
Y35651D01*
X11849Y34450D02*
X12251D01*
X12050Y34249D02*
Y34651D01*
X11849Y33450D02*
X12251D01*
X12050Y33249D02*
Y33651D01*
X47749Y33400D02*
X48151D01*
X47950Y33199D02*
Y33601D01*
X47749Y34400D02*
X48151D01*
X47950Y34199D02*
Y34601D01*
X47749Y35400D02*
X48151D01*
X47950Y35199D02*
Y35601D01*
X47749Y36400D02*
X48151D01*
X47950Y36199D02*
Y36601D01*
X48733Y9700D02*
X49167D01*
X48950Y9483D02*
Y9917D01*
X48733Y10700D02*
X49167D01*
X48950Y10483D02*
Y10917D01*
X48733Y11700D02*
X49167D01*
X48950Y11483D02*
Y11917D01*
X24883Y57700D02*
X25317D01*
X25100Y57483D02*
Y57917D01*
X24883Y58700D02*
X25317D01*
X25100Y58483D02*
Y58917D01*
X24883Y59700D02*
X25317D01*
X25100Y59483D02*
Y59917D01*
X47394Y22330D02*
X47796D01*
X47595Y22129D02*
Y22531D01*
X47394Y23330D02*
X47796D01*
X47595Y23129D02*
Y23531D01*
X40949Y10400D02*
X41351D01*
X41150Y10199D02*
Y10601D01*
X41949Y10400D02*
X42351D01*
X42150Y10199D02*
Y10601D01*
X12199Y23150D02*
X12601D01*
X12400Y22949D02*
Y23351D01*
X12199Y22150D02*
X12601D01*
X12400Y21949D02*
Y22351D01*
X35700Y32400D02*
X35900D01*
X35800Y32300D02*
Y32500D01*
X25800Y35450D02*
X26000D01*
X25900Y35350D02*
Y35550D01*
X23903Y31338D02*
X24103D01*
X24003Y31238D02*
Y31438D01*
X27053Y34038D02*
X27253D01*
X27153Y33938D02*
Y34138D01*
X27650Y34850D02*
X27850D01*
X27750Y34750D02*
Y34950D01*
X31300Y16500D02*
X31500D01*
X31400Y16400D02*
Y16600D01*
X30150Y49900D02*
X30350D01*
X30250Y49800D02*
Y50000D01*
X29850Y50450D02*
X30050D01*
X29950Y50350D02*
Y50550D01*
X26050Y19150D02*
X26250D01*
X26150Y19050D02*
Y19250D01*
X25000Y20750D02*
X25200D01*
X25100Y20650D02*
Y20850D01*
X31400Y14700D02*
X31600D01*
X31500Y14600D02*
Y14800D01*
X27200Y12050D02*
X27400D01*
X27300Y11950D02*
Y12150D01*
X34200Y47800D02*
X34400D01*
X34300Y47700D02*
Y47900D01*
X36600Y46400D02*
X36800D01*
X36700Y46300D02*
Y46500D01*
X38450Y35750D02*
X38650D01*
X38550Y35650D02*
Y35850D01*
X38350Y46550D02*
X38550D01*
X38450Y46450D02*
Y46650D01*
X18678Y57742D02*
X18878D01*
X18778Y57642D02*
Y57842D01*
X10928Y44542D02*
X11128D01*
X11028Y44442D02*
Y44642D01*
X11900Y50250D02*
X12100D01*
X12000Y50150D02*
Y50350D01*
X11200Y49350D02*
X11400D01*
X11300Y49250D02*
Y49450D01*
X25350Y35450D02*
X25550D01*
X25450Y35350D02*
Y35550D01*
X31650Y24400D02*
X31850D01*
X31750Y24300D02*
Y24500D01*
X23600Y37850D02*
X23800D01*
X23700Y37750D02*
Y37950D01*
X25450Y53450D02*
X25650D01*
X25550Y53350D02*
Y53550D01*
X31858Y35767D02*
X32058D01*
X31958Y35667D02*
Y35867D01*
X47450Y13850D02*
X47650D01*
X47550Y13750D02*
Y13950D01*
X28662Y54062D02*
X28862D01*
X28762Y53962D02*
Y54162D01*
X46350Y24300D02*
X46550D01*
X46450Y24200D02*
Y24400D01*
X43500Y40950D02*
X43700D01*
X43600Y40850D02*
Y41050D01*
X44640Y44182D02*
X44840D01*
X44740Y44082D02*
Y44282D01*
X46050Y49450D02*
X46250D01*
X46150Y49350D02*
Y49550D01*
X46500Y49450D02*
X46700D01*
X46600Y49350D02*
Y49550D01*
X35640Y47532D02*
X35840D01*
X35740Y47432D02*
Y47632D01*
X44140Y44182D02*
X44340D01*
X44240Y44082D02*
Y44282D01*
X38750Y44250D02*
X38950D01*
X38850Y44150D02*
Y44350D01*
X42900Y41150D02*
X43100D01*
X43000Y41050D02*
Y41250D01*
X45350Y45300D02*
X45550D01*
X45450Y45200D02*
Y45400D01*
X42550Y40900D02*
X42750D01*
X42650Y40800D02*
Y41000D01*
M02*
