G04*
G04 #@! TF.GenerationSoftware,Altium Limited,Altium Designer,22.4.2 (48)*
G04*
G04 Layer_Color=65535*
%FSLAX24Y24*%
%MOIN*%
G70*
G04*
G04 #@! TF.SameCoordinates,ADE9840D-4DCF-43C8-90FB-517E77D495FD*
G04*
G04*
G04 #@! TF.FilePolarity,Positive*
G04*
G01*
G75*
%ADD10C,0.0098*%
%ADD11C,0.0100*%
%ADD12C,0.0300*%
%ADD13C,0.0079*%
%ADD14C,0.0050*%
%ADD15C,0.0200*%
%ADD16C,0.0150*%
G36*
X15726Y19804D02*
X15855D01*
Y19668D01*
X15597D01*
Y19804D01*
X15468D01*
Y19926D01*
X15726D01*
Y19804D01*
D02*
G37*
G36*
X16249Y19868D02*
Y19862D01*
Y19546D01*
X15991D01*
Y19804D01*
X16120D01*
Y19926D01*
X16249D01*
Y19868D01*
D02*
G37*
G36*
X15991Y19410D02*
X15855D01*
Y19546D01*
X15991D01*
Y19410D01*
D02*
G37*
G36*
X15332Y19907D02*
Y19901D01*
Y19804D01*
X15468D01*
Y19546D01*
X15590D01*
Y19539D01*
X15597D01*
Y19410D01*
X15468D01*
Y19281D01*
X15074D01*
Y19668D01*
X14939D01*
Y19804D01*
X15197D01*
Y19791D01*
Y19784D01*
Y19410D01*
X15332D01*
Y19804D01*
X15197D01*
Y19926D01*
X15332D01*
Y19907D01*
D02*
G37*
G36*
X17294Y19920D02*
Y19914D01*
Y19023D01*
X16384D01*
Y19926D01*
X17294D01*
Y19920D01*
D02*
G37*
G36*
X16249Y19023D02*
X16120D01*
Y19029D01*
X16126D01*
Y19036D01*
X16120D01*
Y19281D01*
X16249D01*
Y19023D01*
D02*
G37*
G36*
X15197D02*
X15074D01*
Y19042D01*
Y19049D01*
Y19152D01*
X15197D01*
Y19023D01*
D02*
G37*
G36*
X14416D02*
X13506D01*
Y19926D01*
X14416D01*
Y19023D01*
D02*
G37*
G36*
X14680Y19668D02*
X14809D01*
Y19546D01*
X14939D01*
Y19023D01*
X15074D01*
Y18887D01*
X15197D01*
Y18758D01*
X15203D01*
Y18752D01*
X15216D01*
Y18758D01*
X15223D01*
Y18752D01*
X15332D01*
Y18494D01*
X15468D01*
Y18236D01*
X15339D01*
Y18229D01*
X15332D01*
Y18100D01*
X15468D01*
Y17984D01*
Y17977D01*
Y17842D01*
X15345D01*
Y17835D01*
X15339D01*
Y17842D01*
X15332D01*
Y18100D01*
X15203D01*
Y18094D01*
X15197D01*
Y17971D01*
X15074D01*
Y17842D01*
X15197D01*
Y17713D01*
X15332D01*
Y17577D01*
X15468D01*
Y17713D01*
X15726D01*
Y17577D01*
X15597D01*
Y17455D01*
X15590D01*
Y17448D01*
X15216D01*
Y17455D01*
X15210D01*
Y17448D01*
X15197D01*
Y17713D01*
X15074D01*
Y17842D01*
X14984D01*
Y17835D01*
X14977D01*
Y17842D01*
X14971D01*
Y17835D01*
X14964D01*
Y17842D01*
X14958D01*
Y17835D01*
X14939D01*
Y17713D01*
X14809D01*
Y17842D01*
X14797D01*
Y17835D01*
X14784D01*
Y17842D01*
X14713D01*
Y17835D01*
X14706D01*
Y17842D01*
X14700D01*
Y17835D01*
X14693D01*
Y17842D01*
X14680D01*
Y17971D01*
X14280D01*
Y17861D01*
X14287D01*
Y17855D01*
X14280D01*
Y17842D01*
X14274D01*
Y17835D01*
X14267D01*
Y17842D01*
X14158D01*
Y18100D01*
X14022D01*
Y17971D01*
X13887D01*
Y17835D01*
X13874D01*
Y17842D01*
X13867D01*
Y17835D01*
X13848D01*
Y17842D01*
X13790D01*
Y17835D01*
X13783D01*
Y17842D01*
X13777D01*
Y17835D01*
X13770D01*
Y17842D01*
X13764D01*
Y18100D01*
X13628D01*
Y18236D01*
X13764D01*
Y18100D01*
X13887D01*
Y18236D01*
X13764D01*
Y18365D01*
X13887D01*
Y18236D01*
X14022D01*
Y18352D01*
Y18358D01*
Y18365D01*
X13887D01*
Y18494D01*
X13628D01*
Y18629D01*
X13506D01*
Y18732D01*
Y18739D01*
Y18887D01*
X13764D01*
Y18758D01*
X13758D01*
Y18752D01*
X13635D01*
Y18758D01*
X13628D01*
Y18629D01*
X13764D01*
Y18752D01*
X14016D01*
Y18758D01*
X14022D01*
Y18887D01*
X14416D01*
Y18752D01*
X14293D01*
Y18758D01*
X14287D01*
Y18752D01*
X14280D01*
Y18649D01*
X14287D01*
Y18642D01*
X14280D01*
Y18629D01*
X14022D01*
Y18494D01*
X14280D01*
Y18371D01*
X14287D01*
Y18365D01*
X14416D01*
Y18236D01*
X14538D01*
Y18229D01*
X14545D01*
Y18100D01*
X14680D01*
Y18236D01*
X14939D01*
Y18100D01*
X15074D01*
Y18236D01*
X14939D01*
Y18365D01*
X15074D01*
Y18236D01*
X15197D01*
Y18365D01*
X15074D01*
Y18494D01*
X15197D01*
Y18752D01*
X15074D01*
Y18887D01*
X14939D01*
Y18758D01*
X14932D01*
Y18752D01*
X14816D01*
Y18758D01*
X14809D01*
Y19152D01*
X14680D01*
Y19023D01*
X14545D01*
Y19281D01*
X14674D01*
Y19288D01*
X14680D01*
Y19404D01*
X14674D01*
Y19410D01*
X14545D01*
Y19752D01*
Y19759D01*
Y19926D01*
X14680D01*
Y19668D01*
D02*
G37*
G36*
X17294Y18758D02*
X17288D01*
Y18752D01*
X17036D01*
Y18494D01*
X16907D01*
Y18365D01*
X17172D01*
Y18236D01*
X17042D01*
Y18229D01*
X17036D01*
Y18100D01*
X17172D01*
Y17713D01*
X17294D01*
Y17577D01*
X17172D01*
Y17319D01*
X17036D01*
Y17455D01*
X17030D01*
Y17448D01*
X16649D01*
Y17455D01*
X16642D01*
Y17577D01*
X16520D01*
Y17455D01*
X16513D01*
Y17448D01*
X16384D01*
Y17577D01*
X16249D01*
Y17713D01*
X16384D01*
Y17577D01*
X16513D01*
Y17584D01*
X16520D01*
Y17661D01*
Y17668D01*
Y17706D01*
X16513D01*
Y17713D01*
X16384D01*
Y17842D01*
X16636D01*
Y17835D01*
X16642D01*
Y17713D01*
X16778D01*
Y17577D01*
X16907D01*
Y17706D01*
X16901D01*
Y17713D01*
X16778D01*
Y17835D01*
X16791D01*
Y17842D01*
X16997D01*
Y17835D01*
X17017D01*
Y17842D01*
X17023D01*
Y17835D01*
X17036D01*
Y17971D01*
X16642D01*
Y18100D01*
X16520D01*
Y18094D01*
X16513D01*
Y18087D01*
X16520D01*
Y17977D01*
X16513D01*
Y17971D01*
X16384D01*
Y18229D01*
X16378D01*
Y18236D01*
X16249D01*
Y18100D01*
X16120D01*
Y18236D01*
X15991D01*
Y18494D01*
X16249D01*
Y18752D01*
X16513D01*
Y18758D01*
X16520D01*
Y18881D01*
X16513D01*
Y18887D01*
X16642D01*
Y18758D01*
X16649D01*
Y18752D01*
X16778D01*
Y18629D01*
X16907D01*
Y18752D01*
X16784D01*
Y18758D01*
X16778D01*
Y18887D01*
X17294D01*
Y18758D01*
D02*
G37*
G36*
X15855Y19152D02*
X15984D01*
Y19146D01*
X15991D01*
Y19023D01*
X16120D01*
Y18629D01*
X15991D01*
Y18913D01*
Y18920D01*
Y19023D01*
X15855D01*
Y19152D01*
X15732D01*
Y19146D01*
X15726D01*
Y19023D01*
X15597D01*
Y18894D01*
X15590D01*
Y18887D01*
X15332D01*
Y18894D01*
Y18900D01*
Y19146D01*
X15339D01*
Y19152D01*
X15461D01*
Y19146D01*
X15468D01*
Y19023D01*
X15590D01*
Y19029D01*
X15597D01*
Y19036D01*
X15590D01*
Y19042D01*
X15597D01*
Y19281D01*
X15855D01*
Y19152D01*
D02*
G37*
G36*
X17288Y18623D02*
X17294D01*
Y18494D01*
X17172D01*
Y18629D01*
X17288D01*
Y18623D01*
D02*
G37*
G36*
X15726Y18681D02*
Y18674D01*
Y18494D01*
X15468D01*
Y18629D01*
X15597D01*
Y18752D01*
X15719D01*
Y18758D01*
X15726D01*
Y18681D01*
D02*
G37*
G36*
X14680Y18636D02*
X14674D01*
Y18629D01*
X14939D01*
Y18494D01*
X14809D01*
Y18365D01*
X14545D01*
Y18481D01*
Y18487D01*
Y18494D01*
X14280D01*
Y18623D01*
X14287D01*
Y18629D01*
X14545D01*
Y18494D01*
X14680D01*
Y18623D01*
X14674D01*
Y18629D01*
X14545D01*
Y18752D01*
X14680D01*
Y18636D01*
D02*
G37*
G36*
X13628Y18365D02*
X13506D01*
Y18449D01*
Y18455D01*
Y18494D01*
X13628D01*
Y18365D01*
D02*
G37*
G36*
X15855Y18358D02*
Y18236D01*
X15732D01*
Y18229D01*
X15726D01*
Y18100D01*
X15597D01*
Y18365D01*
X15855D01*
Y18358D01*
D02*
G37*
G36*
X15991Y17971D02*
X16249D01*
Y17842D01*
X16236D01*
Y17835D01*
X16229D01*
Y17842D01*
X16158D01*
Y17835D01*
X16152D01*
Y17842D01*
X16145D01*
Y17835D01*
X16139D01*
Y17842D01*
X16126D01*
Y17835D01*
X16120D01*
Y17687D01*
Y17680D01*
Y17577D01*
X16249D01*
Y17455D01*
X16255D01*
Y17448D01*
X16384D01*
Y17319D01*
X16778D01*
Y17184D01*
X17036D01*
Y16925D01*
X17172D01*
Y16796D01*
X17294D01*
Y16661D01*
X17172D01*
Y16796D01*
X16907D01*
Y16919D01*
X16901D01*
Y16925D01*
X16778D01*
Y16796D01*
X16907D01*
Y16661D01*
X17172D01*
Y16525D01*
X17294D01*
Y16403D01*
X17036D01*
Y16267D01*
X17172D01*
Y16177D01*
Y16170D01*
Y16144D01*
X17036D01*
Y16267D01*
X16778D01*
Y16144D01*
X16642D01*
Y16267D01*
X16513D01*
Y16261D01*
X16520D01*
Y16144D01*
X16120D01*
Y16267D01*
X15991D01*
Y16403D01*
X15855D01*
Y16654D01*
Y16661D01*
X15991D01*
Y16525D01*
X16120D01*
Y16267D01*
X16384D01*
Y16403D01*
X16642D01*
Y16499D01*
Y16506D01*
Y16525D01*
X16255D01*
Y16532D01*
X16249D01*
Y16661D01*
X15991D01*
Y16796D01*
X15597D01*
Y16912D01*
X15590D01*
Y16919D01*
X15597D01*
Y16925D01*
X15855D01*
Y17054D01*
X15991D01*
Y16925D01*
X16120D01*
Y17054D01*
X15991D01*
Y17184D01*
X15855D01*
Y17319D01*
X15726D01*
Y17448D01*
X15732D01*
Y17455D01*
X15739D01*
Y17448D01*
X15855D01*
Y17319D01*
X15991D01*
Y17448D01*
X15855D01*
Y17577D01*
X15991D01*
Y17448D01*
X16120D01*
Y17577D01*
X15991D01*
Y17835D01*
X15984D01*
Y17842D01*
X15861D01*
Y17835D01*
X15855D01*
Y17713D01*
X15726D01*
Y17842D01*
X15603D01*
Y17835D01*
X15597D01*
Y17945D01*
X15590D01*
Y17952D01*
X15597D01*
Y17971D01*
X15855D01*
Y18100D01*
X15991D01*
Y17971D01*
D02*
G37*
G36*
X14538Y17835D02*
X14545D01*
Y17713D01*
X14674D01*
Y17706D01*
X14680D01*
Y17455D01*
X14674D01*
Y17448D01*
X14551D01*
Y17455D01*
X14545D01*
Y17577D01*
X14416D01*
Y17713D01*
X14280D01*
Y17835D01*
X14287D01*
Y17842D01*
X14293D01*
Y17835D01*
X14300D01*
Y17842D01*
X14306D01*
Y17835D01*
X14313D01*
Y17842D01*
X14538D01*
Y17835D01*
D02*
G37*
G36*
X13628Y17577D02*
X13506D01*
Y17713D01*
X13628D01*
Y17577D01*
D02*
G37*
G36*
X14280Y17700D02*
X14287D01*
Y17693D01*
X14280D01*
Y17687D01*
X14287D01*
Y17680D01*
X14280D01*
Y17597D01*
X14287D01*
Y17590D01*
X14280D01*
Y17577D01*
X14416D01*
Y17519D01*
Y17513D01*
Y17448D01*
X14287D01*
Y17455D01*
X14280D01*
Y17577D01*
X14158D01*
Y17184D01*
X13887D01*
Y17319D01*
X13764D01*
Y17448D01*
X13887D01*
Y17442D01*
Y17435D01*
Y17319D01*
X14022D01*
Y17577D01*
X13764D01*
Y17713D01*
X14280D01*
Y17700D01*
D02*
G37*
G36*
X13764Y17184D02*
X13506D01*
Y17319D01*
X13764D01*
Y17184D01*
D02*
G37*
G36*
X15726Y17054D02*
X15468D01*
Y17171D01*
Y17177D01*
Y17184D01*
X15590D01*
Y17190D01*
X15597D01*
Y17319D01*
X15726D01*
Y17054D01*
D02*
G37*
G36*
X14545Y17184D02*
X14674D01*
Y17177D01*
X14680D01*
Y17061D01*
X14674D01*
Y17054D01*
X14545D01*
Y17184D01*
X14287D01*
Y17190D01*
X14280D01*
Y17313D01*
X14287D01*
Y17319D01*
X14545D01*
Y17184D01*
D02*
G37*
G36*
X17294Y16925D02*
X17172D01*
Y17054D01*
X17294D01*
Y16925D01*
D02*
G37*
G36*
X15074Y17042D02*
Y17035D01*
Y16796D01*
X14939D01*
Y16661D01*
X14809D01*
Y16403D01*
X14680D01*
Y16661D01*
X14545D01*
Y16925D01*
X14809D01*
Y17054D01*
X15074D01*
Y17042D01*
D02*
G37*
G36*
X14809Y17319D02*
X15074D01*
Y17448D01*
X15197D01*
Y17184D01*
X15332D01*
Y17054D01*
X15468D01*
Y16403D01*
X15203D01*
Y16396D01*
X15197D01*
Y16267D01*
X14939D01*
Y16525D01*
X15068D01*
Y16532D01*
X15074D01*
Y16661D01*
X15197D01*
Y16919D01*
X15203D01*
Y16925D01*
X15332D01*
Y17054D01*
X15074D01*
Y17184D01*
X14674D01*
Y17190D01*
X14680D01*
Y17448D01*
X14803D01*
Y17455D01*
X14809D01*
Y17319D01*
D02*
G37*
G36*
X15603Y16525D02*
X15726D01*
Y16403D01*
X15855D01*
Y16267D01*
X15991D01*
Y16144D01*
X15590D01*
Y16151D01*
X15597D01*
Y16267D01*
X15726D01*
Y16403D01*
X15590D01*
Y16409D01*
X15597D01*
Y16416D01*
X15590D01*
Y16422D01*
X15597D01*
Y16532D01*
X15603D01*
Y16525D01*
D02*
G37*
G36*
X15468Y16144D02*
X15332D01*
Y16157D01*
Y16164D01*
Y16267D01*
X15468D01*
Y16144D01*
D02*
G37*
G36*
X14674Y16396D02*
X14680D01*
Y16144D01*
X14545D01*
Y16403D01*
X14674D01*
Y16396D01*
D02*
G37*
G36*
X14416Y16144D02*
X13506D01*
Y17054D01*
X14416D01*
Y16144D01*
D02*
G37*
%LPC*%
G36*
X17172Y19804D02*
X16513D01*
Y19152D01*
X17172D01*
Y19804D01*
D02*
G37*
%LPD*%
G36*
X17036Y19281D02*
X16642D01*
Y19675D01*
X17036D01*
Y19281D01*
D02*
G37*
%LPC*%
G36*
X14287Y19804D02*
X13628D01*
Y19152D01*
X14287D01*
Y19804D01*
D02*
G37*
%LPD*%
G36*
X14151Y19281D02*
X13764D01*
Y19288D01*
X13758D01*
Y19668D01*
X13764D01*
Y19675D01*
X14151D01*
Y19281D01*
D02*
G37*
%LPC*%
G36*
X14280Y18365D02*
X14158D01*
Y18100D01*
X14416D01*
Y18236D01*
X14280D01*
Y18365D01*
D02*
G37*
G36*
X16642Y18629D02*
X16520D01*
Y18623D01*
X16513D01*
Y18616D01*
X16520D01*
Y18500D01*
X16513D01*
Y18494D01*
X16384D01*
Y18365D01*
X16642D01*
Y18236D01*
X16778D01*
Y18100D01*
X16907D01*
Y18229D01*
X16901D01*
Y18236D01*
X16778D01*
Y18494D01*
X16642D01*
Y18629D01*
D02*
G37*
G36*
Y17184D02*
X16249D01*
Y16796D01*
X16642D01*
Y17184D01*
D02*
G37*
G36*
X16778Y16661D02*
X16642D01*
Y16525D01*
X16778D01*
Y16403D01*
X16907D01*
Y16525D01*
X16901D01*
Y16532D01*
X16894D01*
Y16525D01*
X16778D01*
Y16661D01*
D02*
G37*
%LPD*%
G36*
X16520Y16925D02*
X16384D01*
Y17054D01*
X16520D01*
Y16925D01*
D02*
G37*
%LPC*%
G36*
X14287D02*
X13628D01*
Y16267D01*
X14287D01*
Y16319D01*
Y16325D01*
Y16925D01*
D02*
G37*
%LPD*%
G36*
X14151Y16409D02*
X14158D01*
Y16403D01*
X13758D01*
Y16790D01*
X13764D01*
Y16796D01*
X14151D01*
Y16409D01*
D02*
G37*
D10*
X35148Y19250D02*
G03*
X35148Y19250I-49J0D01*
G01*
X17775Y10064D02*
G03*
X17775Y10064I-49J0D01*
G01*
X40078Y60300D02*
G03*
X40078Y60300I-49J0D01*
G01*
X26779Y60558D02*
G03*
X26779Y60558I-49J0D01*
G01*
X32779D02*
G03*
X32779Y60558I-49J0D01*
G01*
X50749Y33829D02*
G03*
X50749Y33829I-49J0D01*
G01*
X28178Y9450D02*
G03*
X28178Y9450I-49J0D01*
G01*
X50649Y21429D02*
G03*
X50649Y21429I-49J0D01*
G01*
X50549Y54029D02*
G03*
X50549Y54029I-49J0D01*
G01*
X9849Y43021D02*
G03*
X9849Y43021I-49J0D01*
G01*
X9949Y30679D02*
G03*
X9949Y30679I-49J0D01*
G01*
X9799Y12021D02*
G03*
X9799Y12021I-49J0D01*
G01*
X48289Y13824D02*
G03*
X48289Y13824I-49J0D01*
G01*
X40646Y43924D02*
G03*
X40646Y43924I-49J0D01*
G01*
X10449Y53242D02*
G03*
X10449Y53242I-49J0D01*
G01*
X22743Y15753D02*
G03*
X22743Y15753I-49J0D01*
G01*
X39343Y15703D02*
G03*
X39343Y15703I-49J0D01*
G01*
X31398Y15000D02*
G03*
X31398Y15000I-49J0D01*
G01*
X47644Y24179D02*
G03*
X47644Y24179I-49J0D01*
G01*
X43048Y10400D02*
G03*
X43048Y10400I-49J0D01*
G01*
X12449Y21302D02*
G03*
X12449Y21302I-49J0D01*
G01*
D11*
X10000Y61250D02*
G03*
X8750Y60000I0J-1250D01*
G01*
X51250D02*
G03*
X50000Y61250I-1250J0D01*
G01*
Y8750D02*
G03*
X51250Y10000I0J1250D01*
G01*
X8750D02*
G03*
X10000Y8750I1250J0D01*
G01*
X39850Y40750D02*
X42350D01*
X39850Y42650D02*
X42350D01*
Y40750D02*
Y42650D01*
X39850Y40750D02*
Y42650D01*
X13376Y15984D02*
X17426D01*
X13376Y20034D02*
X17426D01*
Y15984D02*
Y20034D01*
X13376Y15984D02*
Y20034D01*
X37500Y44450D02*
X40000D01*
X37500Y46350D02*
X40000D01*
Y44450D02*
Y46350D01*
X37500Y44450D02*
Y46350D01*
X42500Y43200D02*
X45000D01*
X42500Y45100D02*
X45000D01*
Y43200D02*
Y45100D01*
X42500Y43200D02*
Y45100D01*
X44500Y48500D02*
X46850D01*
X44500Y50450D02*
X46850D01*
Y48500D02*
Y50450D01*
X44500Y48500D02*
Y50450D01*
X8750Y10000D02*
Y60000D01*
X51250Y10000D02*
Y60000D01*
X10000Y61250D02*
X50000D01*
X10000Y8750D02*
X50000D01*
X46650Y15100D02*
Y14700D01*
X46850Y14500D01*
X47050Y14700D01*
Y15100D01*
X47250D02*
X47450D01*
X47350D01*
Y14500D01*
X47250D01*
X47450D01*
X47750D02*
Y15100D01*
X48150Y14500D01*
Y15100D01*
X35200Y58310D02*
Y58910D01*
X35500D01*
X35600Y58810D01*
Y58610D01*
X35500Y58510D01*
X35200D01*
X35400D02*
X35600Y58310D01*
X36200Y58910D02*
X35800D01*
Y58610D01*
X36000D01*
X35800D01*
Y58310D01*
X36999Y58910D02*
X37399D01*
X37199D01*
Y58310D01*
X37599Y58710D02*
Y58310D01*
Y58510D01*
X37699Y58610D01*
X37799Y58710D01*
X37899D01*
X38299D02*
X38499D01*
X38599Y58610D01*
Y58310D01*
X38299D01*
X38199Y58410D01*
X38299Y58510D01*
X38599D01*
X38799Y58310D02*
Y58710D01*
X39099D01*
X39199Y58610D01*
Y58310D01*
X39399D02*
X39699D01*
X39799Y58410D01*
X39699Y58510D01*
X39499D01*
X39399Y58610D01*
X39499Y58710D01*
X39799D01*
X35300Y57850D02*
Y57750D01*
X35200D01*
X35400D01*
X35300D01*
Y57450D01*
X35400Y57350D01*
X35700Y57950D02*
Y57350D01*
Y57650D01*
X35800Y57750D01*
X36000D01*
X36100Y57650D01*
Y57350D01*
X36300D02*
X36500D01*
X36400D01*
Y57750D01*
X36300D01*
X36799Y57350D02*
X37099D01*
X37199Y57450D01*
X37099Y57550D01*
X36899D01*
X36799Y57650D01*
X36899Y57750D01*
X37199D01*
X37999Y57350D02*
X38299D01*
X38399Y57450D01*
X38299Y57550D01*
X38099D01*
X37999Y57650D01*
X38099Y57750D01*
X38399D01*
X38599Y57350D02*
X38799D01*
X38699D01*
Y57750D01*
X38599D01*
X39499Y57950D02*
Y57350D01*
X39199D01*
X39099Y57450D01*
Y57650D01*
X39199Y57750D01*
X39499D01*
X39998Y57350D02*
X39799D01*
X39699Y57450D01*
Y57650D01*
X39799Y57750D01*
X39998D01*
X40098Y57650D01*
Y57550D01*
X39699D01*
X12252Y48769D02*
X12352D01*
X12452Y48869D01*
Y49369D01*
X12152D01*
X12052Y49269D01*
Y49069D01*
X12152Y48969D01*
X12452D01*
X12752D02*
X12952D01*
X13052Y49069D01*
Y49269D01*
X12952Y49369D01*
X12752D01*
X12652Y49269D01*
Y49069D01*
X12752Y48969D01*
X13651Y49569D02*
Y48969D01*
X13352D01*
X13252Y49069D01*
Y49269D01*
X13352Y49369D01*
X13651D01*
X14451Y48969D02*
X14651D01*
X14551D01*
Y49369D01*
X14451D01*
X15551Y49569D02*
Y48969D01*
Y49269D01*
X15651Y49369D01*
X15851D01*
X15951Y49269D01*
Y48969D01*
X16251D02*
X16451D01*
X16551Y49069D01*
Y49269D01*
X16451Y49369D01*
X16251D01*
X16151Y49269D01*
Y49069D01*
X16251Y48969D01*
X16750Y48769D02*
Y49369D01*
X17050D01*
X17150Y49269D01*
Y49069D01*
X17050Y48969D01*
X16750D01*
X17650D02*
X17450D01*
X17350Y49069D01*
Y49269D01*
X17450Y49369D01*
X17650D01*
X17750Y49269D01*
Y49169D01*
X17350D01*
X18650Y49469D02*
Y49369D01*
X18550D01*
X18750D01*
X18650D01*
Y49069D01*
X18750Y48969D01*
X19050Y49569D02*
Y48969D01*
Y49269D01*
X19150Y49369D01*
X19350D01*
X19450Y49269D01*
Y48969D01*
X19649D02*
X19849D01*
X19749D01*
Y49369D01*
X19649D01*
X20149Y48969D02*
X20449D01*
X20549Y49069D01*
X20449Y49169D01*
X20249D01*
X20149Y49269D01*
X20249Y49369D01*
X20549D01*
X21349D02*
Y49069D01*
X21449Y48969D01*
X21549Y49069D01*
X21649Y48969D01*
X21749Y49069D01*
Y49369D01*
X22049Y48969D02*
X22249D01*
X22349Y49069D01*
Y49269D01*
X22249Y49369D01*
X22049D01*
X21949Y49269D01*
Y49069D01*
X22049Y48969D01*
X22549Y49369D02*
Y48969D01*
Y49169D01*
X22649Y49269D01*
X22748Y49369D01*
X22848D01*
X23148Y48969D02*
Y49569D01*
Y49169D02*
X23448Y49369D01*
X23148Y49169D02*
X23448Y48969D01*
X23748D02*
X24048D01*
X24148Y49069D01*
X24048Y49169D01*
X23848D01*
X23748Y49269D01*
X23848Y49369D01*
X24148D01*
X11102Y47810D02*
X11302D01*
X11202D01*
Y48210D01*
X11102D01*
X12302Y47810D02*
Y48310D01*
Y48110D01*
X12202D01*
X12402D01*
X12302D01*
Y48310D01*
X12402Y48410D01*
X13002Y47810D02*
X12802D01*
X12702Y47910D01*
Y48110D01*
X12802Y48210D01*
X13002D01*
X13102Y48110D01*
Y48010D01*
X12702D01*
X13601Y47810D02*
X13402D01*
X13302Y47910D01*
Y48110D01*
X13402Y48210D01*
X13601D01*
X13701Y48110D01*
Y48010D01*
X13302D01*
X13901Y47810D02*
X14101D01*
X14001D01*
Y48410D01*
X13901D01*
X15001Y47810D02*
X15201D01*
X15101D01*
Y48410D01*
X15001D01*
X15501Y47810D02*
X15701D01*
X15601D01*
Y48210D01*
X15501D01*
X16001Y47810D02*
Y48410D01*
Y48010D02*
X16301Y48210D01*
X16001Y48010D02*
X16301Y47810D01*
X16900D02*
X16700D01*
X16600Y47910D01*
Y48110D01*
X16700Y48210D01*
X16900D01*
X17000Y48110D01*
Y48010D01*
X16600D01*
X17900Y47810D02*
X18100D01*
X18200Y47910D01*
Y48110D01*
X18100Y48210D01*
X17900D01*
X17800Y48110D01*
Y47910D01*
X17900Y47810D01*
X18400Y48210D02*
Y47910D01*
X18500Y47810D01*
X18800D01*
Y48210D01*
X19000D02*
Y47810D01*
Y48010D01*
X19100Y48110D01*
X19200Y48210D01*
X19300D01*
X20199Y48410D02*
Y47810D01*
X20499D01*
X20599Y47910D01*
Y48010D01*
Y48110D01*
X20499Y48210D01*
X20199D01*
X20899D02*
X21099D01*
X21199Y48110D01*
Y47810D01*
X20899D01*
X20799Y47910D01*
X20899Y48010D01*
X21199D01*
X21499Y48310D02*
Y48210D01*
X21399D01*
X21599D01*
X21499D01*
Y47910D01*
X21599Y47810D01*
X21999Y48310D02*
Y48210D01*
X21899D01*
X22099D01*
X21999D01*
Y47910D01*
X22099Y47810D01*
X22699D02*
X22499D01*
X22399Y47910D01*
Y48110D01*
X22499Y48210D01*
X22699D01*
X22798Y48110D01*
Y48010D01*
X22399D01*
X22998Y48210D02*
Y47810D01*
Y48010D01*
X23098Y48110D01*
X23198Y48210D01*
X23298D01*
X23598Y47810D02*
X23798D01*
X23698D01*
Y48210D01*
X23598D01*
X24398Y47810D02*
X24198D01*
X24098Y47910D01*
Y48110D01*
X24198Y48210D01*
X24398D01*
X24498Y48110D01*
Y48010D01*
X24098D01*
X24698Y47810D02*
X24998D01*
X25098Y47910D01*
X24998Y48010D01*
X24798D01*
X24698Y48110D01*
X24798Y48210D01*
X25098D01*
X12402Y47250D02*
Y46850D01*
Y47050D01*
X12502Y47150D01*
X12602Y47250D01*
X12702D01*
X13002D02*
Y46950D01*
X13102Y46850D01*
X13402D01*
Y47250D01*
X13601Y46850D02*
Y47250D01*
X13901D01*
X14001Y47150D01*
Y46850D01*
X14201D02*
Y47250D01*
X14501D01*
X14601Y47150D01*
Y46850D01*
X14801D02*
X15001D01*
X14901D01*
Y47250D01*
X14801D01*
X15301Y46850D02*
Y47250D01*
X15601D01*
X15701Y47150D01*
Y46850D01*
X16101Y46650D02*
X16201D01*
X16301Y46750D01*
Y47250D01*
X16001D01*
X15901Y47150D01*
Y46950D01*
X16001Y46850D01*
X16301D01*
X17200D02*
X17400D01*
X17500Y46950D01*
Y47150D01*
X17400Y47250D01*
X17200D01*
X17100Y47150D01*
Y46950D01*
X17200Y46850D01*
X17700Y47250D02*
Y46950D01*
X17800Y46850D01*
X18100D01*
Y47250D01*
X18400Y47350D02*
Y47250D01*
X18300D01*
X18500D01*
X18400D01*
Y46950D01*
X18500Y46850D01*
X19500D02*
X19699D01*
X19799Y46950D01*
Y47150D01*
X19699Y47250D01*
X19500D01*
X19400Y47150D01*
Y46950D01*
X19500Y46850D01*
X20099D02*
Y47350D01*
Y47150D01*
X19999D01*
X20199D01*
X20099D01*
Y47350D01*
X20199Y47450D01*
X21099Y46650D02*
X21199D01*
X21299Y46750D01*
Y47250D01*
X21699D02*
Y46950D01*
X21799Y46850D01*
X22099D01*
Y47250D01*
X22299Y46850D02*
X22499D01*
X22399D01*
Y47250D01*
X22299D01*
X23198D02*
X22898D01*
X22798Y47150D01*
Y46950D01*
X22898Y46850D01*
X23198D01*
X23698D02*
X23498D01*
X23398Y46950D01*
Y47150D01*
X23498Y47250D01*
X23698D01*
X23798Y47150D01*
Y47050D01*
X23398D01*
D12*
X41900Y48950D02*
G03*
X41900Y48950I-150J0D01*
G01*
D13*
X34848Y18730D02*
Y19770D01*
X32652D02*
X34848D01*
X32652Y18730D02*
Y19770D01*
Y18730D02*
X34848D01*
X31339Y19656D02*
X31536Y19636D01*
X31339Y19833D02*
X31536Y19852D01*
X31536Y19636D02*
Y19852D01*
X28583Y20089D02*
X31339D01*
X28583Y17333D02*
Y17845D01*
Y17333D02*
X31339D01*
Y19833D02*
Y20089D01*
Y17333D02*
Y19656D01*
X28386Y17814D02*
Y18128D01*
Y17814D02*
X28583Y17845D01*
Y18100D02*
Y20089D01*
X28386Y18128D02*
X28584Y18101D01*
X16781Y10468D02*
Y11432D01*
X14488Y12131D02*
X16712D01*
X14419Y10468D02*
Y11432D01*
X14488Y9769D02*
X16712D01*
X18296Y10911D02*
Y10989D01*
X17804Y10911D02*
Y10989D01*
X38454Y60654D02*
X38946D01*
X38454Y59946D02*
X38946D01*
X36751Y60576D02*
X36849D01*
X36751Y60024D02*
X36849D01*
X26174Y45125D02*
X27226D01*
Y60275D01*
X26174D02*
X27226D01*
X26174Y45125D02*
Y60275D01*
X32174Y45125D02*
X33226D01*
Y60275D01*
X32174D02*
X33226D01*
X32174Y45125D02*
Y60275D01*
X10076Y46151D02*
Y46249D01*
X9524Y46151D02*
Y46249D01*
X10026Y15151D02*
Y15249D01*
X9474Y15151D02*
Y15249D01*
X50424Y30601D02*
Y30699D01*
X50976Y30601D02*
Y30699D01*
X50324Y18151D02*
Y18249D01*
X50876Y18151D02*
Y18249D01*
X50224Y50801D02*
Y50899D01*
X50776Y50801D02*
Y50899D01*
X9624Y27451D02*
Y27549D01*
X10176Y27451D02*
Y27549D01*
X24851Y9726D02*
X24949D01*
X24851Y9174D02*
X24949D01*
X50346Y32254D02*
Y32746D01*
X51054Y32254D02*
Y32746D01*
X26554Y9804D02*
X27046D01*
X26554Y9096D02*
X27046D01*
X50246Y19854D02*
Y20346D01*
X50954Y19854D02*
Y20346D01*
X50146Y52454D02*
Y52946D01*
X50854Y52454D02*
Y52946D01*
X10154Y44104D02*
Y44596D01*
X9446Y44104D02*
Y44596D01*
X9546Y29104D02*
Y29596D01*
X10254Y29104D02*
Y29596D01*
X10104Y13104D02*
Y13596D01*
X9396Y13104D02*
Y13596D01*
X49375Y13391D02*
X49525D01*
X50135D02*
X50552D01*
Y16028D01*
X49375D02*
X49525D01*
X50135D02*
X50552D01*
X48938Y15290D02*
Y15310D01*
Y14109D02*
Y14719D01*
X47450Y58575D02*
X48450D01*
Y54425D02*
Y58575D01*
X47450Y54425D02*
X48450D01*
X47450D02*
Y58575D01*
X32025Y12000D02*
Y13000D01*
X27875Y12000D02*
X32025D01*
X27875D02*
Y13000D01*
X32025D01*
X43250Y45375D02*
X44250D01*
X43250D02*
Y49525D01*
X44250D01*
Y45375D02*
Y49525D01*
X40250Y45375D02*
X41250D01*
X40250D02*
Y49525D01*
X41250D01*
Y45375D02*
Y49525D01*
X37773Y47217D02*
Y48083D01*
X36927Y47217D02*
Y48083D01*
X37773Y48567D02*
Y49433D01*
X36927Y48567D02*
Y49433D01*
X41414Y42950D02*
X41709D01*
X41906Y43442D02*
Y43658D01*
X41414Y44150D02*
X41709D01*
X9300Y55500D02*
Y56464D01*
Y55500D02*
X13500D01*
Y56464D01*
X13900Y55564D02*
Y56752D01*
Y55564D02*
X18100D01*
Y56752D01*
X11017Y52973D02*
X11883D01*
X11017Y52127D02*
X11883D01*
X9717Y52973D02*
X10583D01*
X9717Y52127D02*
X10583D01*
X37405Y20228D02*
X37424Y20425D01*
X37209D02*
X37228Y20228D01*
X37208Y20425D02*
X37425D01*
X36972Y17472D02*
Y20228D01*
X39216Y17472D02*
X39728D01*
Y20228D01*
X36972D02*
X37228D01*
X37405D02*
X39728D01*
X38933Y17275D02*
X39247D01*
X39216Y17472D02*
X39247Y17275D01*
X36972Y17472D02*
X38960D01*
X38933Y17275D02*
X38960Y17473D01*
X22676Y17325D02*
X22695Y17522D01*
X22872D02*
X22891Y17325D01*
X22675Y17325D02*
X22892D01*
X23128Y17522D02*
Y20278D01*
X20372D02*
X20884D01*
X20372Y17522D02*
Y20278D01*
X22872Y17522D02*
X23128D01*
X20372D02*
X22695D01*
X20853Y20475D02*
X21167D01*
X20853D02*
X20884Y20278D01*
X21140D02*
X23128D01*
X21140Y20277D02*
X21167Y20475D01*
X19700Y10085D02*
Y15515D01*
Y10085D02*
X23700D01*
Y15515D01*
X23198D02*
X23700D01*
X19700D02*
X20202D01*
X36300Y10035D02*
Y15465D01*
Y10035D02*
X40300D01*
Y15465D01*
X39798D02*
X40300D01*
X36300D02*
X36802D01*
X31098Y14480D02*
Y15520D01*
X28902D02*
X31098D01*
X28902Y14480D02*
Y15520D01*
Y14480D02*
X31098D01*
X33700Y56125D02*
X34700D01*
X33700D02*
Y60275D01*
X34700D01*
Y56125D02*
Y60275D01*
X11550Y32875D02*
X12550D01*
X11550D02*
Y37025D01*
X12550D01*
Y32875D02*
Y37025D01*
X47450Y36975D02*
X48450D01*
Y32825D02*
Y36975D01*
X47450Y32825D02*
X48450D01*
X47450D02*
Y36975D01*
X48420Y12259D02*
X49480D01*
X48420Y9141D02*
Y12259D01*
Y9141D02*
X49480D01*
Y12259D01*
X24570Y60259D02*
X25630D01*
X24570Y57141D02*
Y60259D01*
Y57141D02*
X25630D01*
Y60259D01*
X47075Y23929D02*
X48115D01*
X47075Y21732D02*
Y23929D01*
Y21732D02*
X48115D01*
Y23929D01*
X42748Y9880D02*
Y10920D01*
X40552D02*
X42748D01*
X40552Y9880D02*
Y10920D01*
Y9880D02*
X42748D01*
X11880Y21552D02*
X12920D01*
Y23748D01*
X11880D02*
X12920D01*
X11880Y21552D02*
Y23748D01*
X46691Y22752D02*
Y22809D01*
X46199Y22752D02*
Y22809D01*
X41621Y9546D02*
X41679D01*
X41621Y9054D02*
X41679D01*
X13796Y22621D02*
Y22679D01*
X13304Y22621D02*
Y22679D01*
D14*
X42050Y11300D02*
X42000Y11250D01*
Y11150D01*
X42050Y11100D01*
X42250D01*
X42300Y11150D01*
Y11250D01*
X42250Y11300D01*
X42000Y11550D02*
Y11450D01*
X42050Y11400D01*
X42250D01*
X42300Y11450D01*
Y11550D01*
X42250Y11600D01*
X42050D01*
X42000Y11550D01*
Y11700D02*
X42300D01*
Y11900D01*
X42000Y12000D02*
X42300D01*
Y12200D01*
X42000Y12500D02*
Y12300D01*
X42300D01*
Y12500D01*
X42150Y12300D02*
Y12400D01*
X42050Y12799D02*
X42000Y12749D01*
Y12650D01*
X42050Y12600D01*
X42250D01*
X42300Y12650D01*
Y12749D01*
X42250Y12799D01*
X42000Y12899D02*
Y13099D01*
Y12999D01*
X42300D01*
X42000Y13349D02*
Y13249D01*
X42050Y13199D01*
X42250D01*
X42300Y13249D01*
Y13349D01*
X42250Y13399D01*
X42050D01*
X42000Y13349D01*
X42300Y13499D02*
X42000D01*
Y13649D01*
X42050Y13699D01*
X42150D01*
X42200Y13649D01*
Y13499D01*
Y13599D02*
X42300Y13699D01*
X48550Y22450D02*
X48350D01*
Y22150D01*
X48550D01*
X48350Y22300D02*
X48450D01*
X48650Y22150D02*
Y22450D01*
X48750Y22350D01*
X48850Y22450D01*
Y22150D01*
X48950Y22450D02*
X49050D01*
X49000D01*
Y22150D01*
X48950D01*
X49050D01*
X49200Y22450D02*
X49400D01*
X49300D01*
Y22150D01*
X49500Y22450D02*
X49700D01*
X49600D01*
Y22150D01*
X49999Y22450D02*
X49800D01*
Y22150D01*
X49999D01*
X49800Y22300D02*
X49900D01*
X50099Y22150D02*
Y22450D01*
X50249D01*
X50299Y22400D01*
Y22300D01*
X50249Y22250D01*
X50099D01*
X50199D02*
X50299Y22150D01*
X9850Y23300D02*
X9650D01*
Y23000D01*
X9850D01*
X9650Y23150D02*
X9750D01*
X9950Y23000D02*
Y23300D01*
X10050Y23200D01*
X10150Y23300D01*
Y23000D01*
X10250Y23300D02*
X10350D01*
X10300D01*
Y23000D01*
X10250D01*
X10350D01*
X10500Y23300D02*
X10700D01*
X10600D01*
Y23000D01*
X10800Y23300D02*
X11000D01*
X10900D01*
Y23000D01*
X11299Y23300D02*
X11100D01*
Y23000D01*
X11299D01*
X11100Y23150D02*
X11200D01*
X11399Y23000D02*
Y23300D01*
X11549D01*
X11599Y23250D01*
Y23150D01*
X11549Y23100D01*
X11399D01*
X11499D02*
X11599Y23000D01*
X23800Y57800D02*
X23750Y57850D01*
X23650D01*
X23600Y57800D01*
Y57600D01*
X23650Y57550D01*
X23750D01*
X23800Y57600D01*
Y57700D01*
X23700D01*
X23900Y57550D02*
Y57850D01*
X24100Y57550D01*
Y57850D01*
X24200D02*
Y57550D01*
X24350D01*
X24400Y57600D01*
Y57800D01*
X24350Y57850D01*
X24200D01*
X49750Y11550D02*
Y11750D01*
X49850Y11850D01*
X49950Y11750D01*
Y11550D01*
Y11700D01*
X49750D01*
X50250Y11850D02*
X50050D01*
Y11700D01*
X50150Y11750D01*
X50200D01*
X50250Y11700D01*
Y11600D01*
X50200Y11550D01*
X50100D01*
X50050Y11600D01*
X23800Y58800D02*
X23750Y58850D01*
X23650D01*
X23600Y58800D01*
Y58750D01*
X23650Y58700D01*
X23750D01*
X23800Y58650D01*
Y58600D01*
X23750Y58550D01*
X23650D01*
X23600Y58600D01*
X24100Y58800D02*
X24050Y58850D01*
X23950D01*
X23900Y58800D01*
Y58600D01*
X23950Y58550D01*
X24050D01*
X24100Y58600D01*
X24200Y58850D02*
Y58550D01*
Y58650D01*
X24400Y58850D01*
X24250Y58700D01*
X24400Y58550D01*
X39400Y16650D02*
X39450Y16700D01*
Y16800D01*
X39400Y16850D01*
X39200D01*
X39150Y16800D01*
Y16700D01*
X39200Y16650D01*
X39300D01*
Y16750D01*
X39150Y16550D02*
X39450D01*
X39150Y16350D01*
X39450D01*
Y16250D02*
X39150D01*
Y16100D01*
X39200Y16050D01*
X39400D01*
X39450Y16100D01*
Y16250D01*
X21855Y16834D02*
X21655D01*
X21555Y16734D01*
X21655Y16634D01*
X21855D01*
X21805Y16334D02*
X21855Y16384D01*
Y16484D01*
X21805Y16534D01*
X21605D01*
X21555Y16484D01*
Y16384D01*
X21605Y16334D01*
X21805Y16034D02*
X21855Y16084D01*
Y16184D01*
X21805Y16234D01*
X21605D01*
X21555Y16184D01*
Y16084D01*
X21605Y16034D01*
X37154Y16828D02*
X37454D01*
Y16678D01*
X37404Y16628D01*
X37304D01*
X37254Y16678D01*
Y16828D01*
X37454Y16528D02*
X37154D01*
X37254Y16428D01*
X37154Y16328D01*
X37454D01*
X37154Y16228D02*
X37454D01*
X37354Y16128D01*
X37454Y16028D01*
X37154D01*
X41000Y11300D02*
Y11100D01*
X41300D01*
Y11300D01*
X41150Y11100D02*
Y11200D01*
X41300Y11400D02*
X41000D01*
X41100Y11500D01*
X41000Y11600D01*
X41300D01*
X41000Y11700D02*
Y11800D01*
Y11750D01*
X41300D01*
Y11700D01*
Y11800D01*
X41000Y11950D02*
Y12150D01*
Y12050D01*
X41300D01*
X41000Y12250D02*
Y12450D01*
Y12350D01*
X41300D01*
X41000Y12749D02*
Y12550D01*
X41300D01*
Y12749D01*
X41150Y12550D02*
Y12650D01*
X41300Y12849D02*
X41000D01*
Y12999D01*
X41050Y13049D01*
X41150D01*
X41200Y12999D01*
Y12849D01*
Y12949D02*
X41300Y13049D01*
X34150Y20350D02*
Y20050D01*
X34350D01*
X30100Y17050D02*
Y16750D01*
X30250D01*
X30300Y16800D01*
Y16850D01*
X30250Y16900D01*
X30100D01*
X30250D01*
X30300Y16950D01*
Y17000D01*
X30250Y17050D01*
X30100D01*
X30400D02*
Y16750D01*
X30600D01*
X30700Y17050D02*
Y16800D01*
X30750Y16750D01*
X30850D01*
X30900Y16800D01*
Y17050D01*
X31200D02*
X31000D01*
Y16750D01*
X31200D01*
X31000Y16900D02*
X31100D01*
X9250Y22250D02*
X9200Y22300D01*
X9100D01*
X9050Y22250D01*
Y22050D01*
X9100Y22000D01*
X9200D01*
X9250Y22050D01*
X9500Y22300D02*
X9400D01*
X9350Y22250D01*
Y22050D01*
X9400Y22000D01*
X9500D01*
X9550Y22050D01*
Y22250D01*
X9500Y22300D01*
X9650D02*
Y22000D01*
X9850D01*
X9950Y22300D02*
Y22000D01*
X10150D01*
X10450Y22300D02*
X10250D01*
Y22000D01*
X10450D01*
X10250Y22150D02*
X10350D01*
X10749Y22250D02*
X10699Y22300D01*
X10599D01*
X10550Y22250D01*
Y22050D01*
X10599Y22000D01*
X10699D01*
X10749Y22050D01*
X10849Y22300D02*
X11049D01*
X10949D01*
Y22000D01*
X11299Y22300D02*
X11199D01*
X11149Y22250D01*
Y22050D01*
X11199Y22000D01*
X11299D01*
X11349Y22050D01*
Y22250D01*
X11299Y22300D01*
X11449Y22000D02*
Y22300D01*
X11599D01*
X11649Y22250D01*
Y22150D01*
X11599Y22100D01*
X11449D01*
X11549D02*
X11649Y22000D01*
X24550Y14850D02*
Y15150D01*
X24700D01*
X24750Y15100D01*
Y15000D01*
X24700Y14950D01*
X24550D01*
X24650D02*
X24750Y14850D01*
X24850Y15150D02*
X24950D01*
X24900D01*
Y14850D01*
X24850D01*
X24950D01*
X25300Y15100D02*
X25250Y15150D01*
X25150D01*
X25100Y15100D01*
Y14900D01*
X25150Y14850D01*
X25250D01*
X25300Y14900D01*
Y15000D01*
X25200D01*
X25400Y15150D02*
Y14850D01*
Y15000D01*
X25600D01*
Y15150D01*
Y14850D01*
X25700Y15150D02*
X25900D01*
X25800D01*
Y14850D01*
X26000Y14800D02*
X26199D01*
X26499Y15150D02*
X26299D01*
Y15000D01*
X26399D01*
X26299D01*
Y14850D01*
X26799Y15150D02*
X26599D01*
Y14850D01*
X26799D01*
X26599Y15000D02*
X26699D01*
X27099Y15150D02*
X26899D01*
Y14850D01*
X27099D01*
X26899Y15000D02*
X26999D01*
X27199Y15150D02*
Y14850D01*
X27349D01*
X27399Y14900D01*
Y15100D01*
X27349Y15150D01*
X27199D01*
X27499D02*
Y14850D01*
X27649D01*
X27699Y14900D01*
Y14950D01*
X27649Y15000D01*
X27499D01*
X27649D01*
X27699Y15050D01*
Y15100D01*
X27649Y15150D01*
X27499D01*
X27799Y14850D02*
Y15050D01*
X27899Y15150D01*
X27999Y15050D01*
Y14850D01*
Y15000D01*
X27799D01*
X28299Y15100D02*
X28249Y15150D01*
X28149D01*
X28099Y15100D01*
Y14900D01*
X28149Y14850D01*
X28249D01*
X28299Y14900D01*
X28399Y15150D02*
Y14850D01*
Y14950D01*
X28599Y15150D01*
X28449Y15000D01*
X28599Y14850D01*
X49896Y10874D02*
X49696D01*
Y10724D01*
X49796Y10774D01*
X49846D01*
X49896Y10724D01*
Y10624D01*
X49846Y10574D01*
X49746D01*
X49696Y10624D01*
X49996Y10874D02*
Y10674D01*
X50096Y10574D01*
X50196Y10674D01*
Y10874D01*
X39950Y18050D02*
X40000Y18000D01*
X40100D01*
X40150Y18050D01*
Y18250D01*
X40100Y18300D01*
X40000D01*
X39950Y18250D01*
Y18200D01*
X40000Y18150D01*
X40150D01*
X40250Y18300D02*
Y18100D01*
X40350Y18000D01*
X40450Y18100D01*
Y18300D01*
X23300Y59850D02*
X23350Y59900D01*
X23450D01*
X23500Y59850D01*
Y59800D01*
X23450Y59750D01*
X23400D01*
X23450D01*
X23500Y59700D01*
Y59650D01*
X23450Y59600D01*
X23350D01*
X23300Y59650D01*
X23600Y59600D02*
Y59650D01*
X23650D01*
Y59600D01*
X23600D01*
X23850Y59850D02*
X23900Y59900D01*
X24000D01*
X24050Y59850D01*
Y59800D01*
X24000Y59750D01*
X23950D01*
X24000D01*
X24050Y59700D01*
Y59650D01*
X24000Y59600D01*
X23900D01*
X23850Y59650D01*
X24150Y59900D02*
Y59700D01*
X24250Y59600D01*
X24350Y59700D01*
Y59900D01*
X38455Y16834D02*
X38255D01*
X38155Y16734D01*
X38255Y16634D01*
X38455D01*
X38405Y16334D02*
X38455Y16384D01*
Y16484D01*
X38405Y16534D01*
X38205D01*
X38155Y16484D01*
Y16384D01*
X38205Y16334D01*
X38405Y16034D02*
X38455Y16084D01*
Y16184D01*
X38405Y16234D01*
X38205D01*
X38155Y16184D01*
Y16084D01*
X38205Y16034D01*
X19600Y18300D02*
X19550Y18350D01*
X19450D01*
X19400Y18300D01*
Y18100D01*
X19450Y18050D01*
X19550D01*
X19600Y18100D01*
Y18200D01*
X19500D01*
X19700Y18050D02*
Y18350D01*
X19900Y18050D01*
Y18350D01*
X20000D02*
Y18050D01*
X20150D01*
X20200Y18100D01*
Y18300D01*
X20150Y18350D01*
X20000D01*
X28700Y11700D02*
Y11450D01*
X28750Y11400D01*
X28850D01*
X28900Y11450D01*
Y11700D01*
X29200Y11650D02*
X29150Y11700D01*
X29050D01*
X29000Y11650D01*
Y11600D01*
X29050Y11550D01*
X29150D01*
X29200Y11500D01*
Y11450D01*
X29150Y11400D01*
X29050D01*
X29000Y11450D01*
X29800Y11650D02*
X29750Y11700D01*
X29650D01*
X29600Y11650D01*
Y11600D01*
X29650Y11550D01*
X29750D01*
X29800Y11500D01*
Y11450D01*
X29750Y11400D01*
X29650D01*
X29600Y11450D01*
X30050Y11400D02*
X29950D01*
X29900Y11450D01*
Y11550D01*
X29950Y11600D01*
X30050D01*
X30100Y11550D01*
Y11500D01*
X29900D01*
X30200Y11400D02*
Y11600D01*
X30349D01*
X30399Y11550D01*
Y11400D01*
X30499D02*
X30649D01*
X30699Y11450D01*
X30649Y11500D01*
X30549D01*
X30499Y11550D01*
X30549Y11600D01*
X30699D01*
X30849Y11400D02*
X30949D01*
X30999Y11450D01*
Y11550D01*
X30949Y11600D01*
X30849D01*
X30799Y11550D01*
Y11450D01*
X30849Y11400D01*
X31099Y11600D02*
Y11400D01*
Y11500D01*
X31149Y11550D01*
X31199Y11600D01*
X31249D01*
X28850Y16750D02*
Y17050D01*
X29000D01*
X29050Y17000D01*
Y16900D01*
X29000Y16850D01*
X28850D01*
X28950D02*
X29050Y16750D01*
X29350Y17050D02*
X29150D01*
Y16750D01*
X29350D01*
X29150Y16900D02*
X29250D01*
X29450Y17050D02*
Y16750D01*
X29600D01*
X29650Y16800D01*
Y17000D01*
X29600Y17050D01*
X29450D01*
X40119Y19616D02*
X40069Y19666D01*
X39969D01*
X39919Y19616D01*
Y19416D01*
X39969Y19366D01*
X40069D01*
X40119Y19416D01*
Y19516D01*
X40019D01*
X40219Y19366D02*
Y19666D01*
X40419Y19366D01*
Y19666D01*
X40519D02*
Y19366D01*
X40669D01*
X40719Y19416D01*
Y19616D01*
X40669Y19666D01*
X40519D01*
X19900Y19750D02*
X19800Y19700D01*
X19700Y19600D01*
Y19500D01*
X19750Y19450D01*
X19850D01*
X19900Y19500D01*
Y19550D01*
X19850Y19600D01*
X19700D01*
X20000Y19750D02*
Y19550D01*
X20100Y19450D01*
X20200Y19550D01*
Y19750D01*
X49900Y9810D02*
X49850Y9860D01*
X49750D01*
X49700Y9810D01*
Y9610D01*
X49750Y9560D01*
X49850D01*
X49900Y9610D01*
Y9710D01*
X49800D01*
X50000Y9560D02*
Y9860D01*
X50200Y9560D01*
Y9860D01*
X50300D02*
Y9560D01*
X50450D01*
X50500Y9610D01*
Y9810D01*
X50450Y9860D01*
X50300D01*
X20554Y16828D02*
X20854D01*
Y16678D01*
X20804Y16628D01*
X20704D01*
X20654Y16678D01*
Y16828D01*
X20854Y16528D02*
X20554D01*
X20654Y16428D01*
X20554Y16328D01*
X20854D01*
X20554Y16228D02*
X20854D01*
X20754Y16128D01*
X20854Y16028D01*
X20554D01*
X29400Y58510D02*
Y58260D01*
X29450Y58210D01*
X29550D01*
X29600Y58260D01*
Y58510D01*
X29900Y58460D02*
X29850Y58510D01*
X29750D01*
X29700Y58460D01*
Y58410D01*
X29750Y58360D01*
X29850D01*
X29900Y58310D01*
Y58260D01*
X29850Y58210D01*
X29750D01*
X29700Y58260D01*
X30000Y58510D02*
Y58210D01*
X30150D01*
X30200Y58260D01*
Y58310D01*
X30150Y58360D01*
X30000D01*
X30150D01*
X30200Y58410D01*
Y58460D01*
X30150Y58510D01*
X30000D01*
X29275Y58030D02*
X29475D01*
X29375D01*
Y57730D01*
X29575Y58030D02*
Y57730D01*
Y57880D01*
X29625Y57930D01*
X29725D01*
X29775Y57880D01*
Y57730D01*
X29875D02*
X29975D01*
X29925D01*
Y57930D01*
X29875D01*
X30125Y57730D02*
X30275D01*
X30325Y57780D01*
X30275Y57830D01*
X30175D01*
X30125Y57880D01*
X30175Y57930D01*
X30325D01*
X29475Y57500D02*
X29425Y57550D01*
X29325D01*
X29275Y57500D01*
Y57450D01*
X29325Y57400D01*
X29425D01*
X29475Y57350D01*
Y57300D01*
X29425Y57250D01*
X29325D01*
X29275Y57300D01*
X29575Y57250D02*
X29675D01*
X29625D01*
Y57450D01*
X29575D01*
X30025Y57550D02*
Y57250D01*
X29875D01*
X29825Y57300D01*
Y57400D01*
X29875Y57450D01*
X30025D01*
X30275Y57250D02*
X30175D01*
X30125Y57300D01*
Y57400D01*
X30175Y57450D01*
X30275D01*
X30325Y57400D01*
Y57350D01*
X30125D01*
X51000Y13550D02*
X51050Y13600D01*
Y13700D01*
X51000Y13750D01*
X50800D01*
X50750Y13700D01*
Y13600D01*
X50800Y13550D01*
X50850D01*
X50900Y13600D01*
Y13750D01*
X50750Y13850D02*
X50950D01*
X51050Y13950D01*
X50950Y14050D01*
X50750D01*
X51050Y14450D02*
X50850Y14650D01*
X50750Y15050D02*
X51000D01*
X51050Y15100D01*
Y15199D01*
X51000Y15249D01*
X50750D01*
X50800Y15549D02*
X50750Y15499D01*
Y15399D01*
X50800Y15349D01*
X50850D01*
X50900Y15399D01*
Y15499D01*
X50950Y15549D01*
X51000D01*
X51050Y15499D01*
Y15399D01*
X51000Y15349D01*
X50750Y15649D02*
X51050D01*
Y15799D01*
X51000Y15849D01*
X50950D01*
X50900Y15799D01*
Y15649D01*
Y15799D01*
X50850Y15849D01*
X50800D01*
X50750Y15799D01*
Y15649D01*
X33150Y20050D02*
Y20350D01*
X33300D01*
X33350Y20300D01*
Y20200D01*
X33300Y20150D01*
X33150D01*
X33250D02*
X33350Y20050D01*
X22800Y16650D02*
X22850Y16700D01*
Y16800D01*
X22800Y16850D01*
X22600D01*
X22550Y16800D01*
Y16700D01*
X22600Y16650D01*
X22700D01*
Y16750D01*
X22550Y16550D02*
X22850D01*
X22550Y16350D01*
X22850D01*
Y16250D02*
X22550D01*
Y16100D01*
X22600Y16050D01*
X22800D01*
X22850Y16100D01*
Y16250D01*
X48500Y23400D02*
X48450Y23450D01*
X48350D01*
X48300Y23400D01*
Y23200D01*
X48350Y23150D01*
X48450D01*
X48500Y23200D01*
X48750Y23450D02*
X48650D01*
X48600Y23400D01*
Y23200D01*
X48650Y23150D01*
X48750D01*
X48800Y23200D01*
Y23400D01*
X48750Y23450D01*
X48900D02*
Y23150D01*
X49100D01*
X49200Y23450D02*
Y23150D01*
X49400D01*
X49700Y23450D02*
X49500D01*
Y23150D01*
X49700D01*
X49500Y23300D02*
X49600D01*
X49999Y23400D02*
X49949Y23450D01*
X49850D01*
X49800Y23400D01*
Y23200D01*
X49850Y23150D01*
X49949D01*
X49999Y23200D01*
X50099Y23450D02*
X50299D01*
X50199D01*
Y23150D01*
X50549Y23450D02*
X50449D01*
X50399Y23400D01*
Y23200D01*
X50449Y23150D01*
X50549D01*
X50599Y23200D01*
Y23400D01*
X50549Y23450D01*
X50699Y23150D02*
Y23450D01*
X50849D01*
X50899Y23400D01*
Y23300D01*
X50849Y23250D01*
X50699D01*
X50799D02*
X50899Y23150D01*
X31700Y15150D02*
Y14850D01*
X31900D01*
X32200Y15150D02*
X32000D01*
Y14850D01*
X32200D01*
X32000Y15000D02*
X32100D01*
X32500Y15150D02*
X32300D01*
Y15000D01*
X32400D01*
X32300D01*
Y14850D01*
X32600Y15150D02*
X32800D01*
X32700D01*
Y14850D01*
X32900Y14800D02*
X33100D01*
X33399Y15150D02*
X33200D01*
Y15000D01*
X33299D01*
X33200D01*
Y14850D01*
X33699Y15150D02*
X33499D01*
Y14850D01*
X33699D01*
X33499Y15000D02*
X33599D01*
X33999Y15150D02*
X33799D01*
Y14850D01*
X33999D01*
X33799Y15000D02*
X33899D01*
X34099Y15150D02*
Y14850D01*
X34249D01*
X34299Y14900D01*
Y15100D01*
X34249Y15150D01*
X34099D01*
X34399D02*
Y14850D01*
X34549D01*
X34599Y14900D01*
Y14950D01*
X34549Y15000D01*
X34399D01*
X34549D01*
X34599Y15050D01*
Y15100D01*
X34549Y15150D01*
X34399D01*
X34699Y14850D02*
Y15050D01*
X34799Y15150D01*
X34899Y15050D01*
Y14850D01*
Y15000D01*
X34699D01*
X35199Y15100D02*
X35149Y15150D01*
X35049D01*
X34999Y15100D01*
Y14900D01*
X35049Y14850D01*
X35149D01*
X35199Y14900D01*
X35299Y15150D02*
Y14850D01*
Y14950D01*
X35499Y15150D01*
X35349Y15000D01*
X35499Y14850D01*
X31875Y19350D02*
X31775D01*
X31825D01*
Y19100D01*
X31775Y19050D01*
X31725D01*
X31675Y19100D01*
X31975Y19050D02*
X32075D01*
X32025D01*
Y19350D01*
X31975Y19300D01*
X32225D02*
X32275Y19350D01*
X32375D01*
X32425Y19300D01*
Y19100D01*
X32375Y19050D01*
X32275D01*
X32225Y19100D01*
Y19300D01*
X26750Y18500D02*
Y18800D01*
X26900D01*
X26950Y18750D01*
Y18650D01*
X26900Y18600D01*
X26750D01*
X26850D02*
X26950Y18500D01*
X27200D02*
Y18800D01*
X27050Y18650D01*
X27250D01*
X27350Y18750D02*
X27400Y18800D01*
X27500D01*
X27550Y18750D01*
Y18550D01*
X27500Y18500D01*
X27400D01*
X27350Y18550D01*
Y18750D01*
X26750Y15800D02*
Y16100D01*
X26900D01*
X26950Y16050D01*
Y15950D01*
X26900Y15900D01*
X26750D01*
X26850D02*
X26950Y15800D01*
X27050Y16050D02*
X27100Y16100D01*
X27200D01*
X27250Y16050D01*
Y16000D01*
X27200Y15950D01*
X27150D01*
X27200D01*
X27250Y15900D01*
Y15850D01*
X27200Y15800D01*
X27100D01*
X27050Y15850D01*
X27350D02*
X27400Y15800D01*
X27500D01*
X27550Y15850D01*
Y16050D01*
X27500Y16100D01*
X27400D01*
X27350Y16050D01*
Y16000D01*
X27400Y15950D01*
X27550D01*
X32850Y18100D02*
Y18400D01*
X33000D01*
X33050Y18350D01*
Y18250D01*
X33000Y18200D01*
X32850D01*
X32950D02*
X33050Y18100D01*
X33150Y18350D02*
X33200Y18400D01*
X33300D01*
X33350Y18350D01*
Y18300D01*
X33300Y18250D01*
X33250D01*
X33300D01*
X33350Y18200D01*
Y18150D01*
X33300Y18100D01*
X33200D01*
X33150Y18150D01*
X33450Y18350D02*
X33500Y18400D01*
X33600D01*
X33650Y18350D01*
Y18300D01*
X33600Y18250D01*
X33650Y18200D01*
Y18150D01*
X33600Y18100D01*
X33500D01*
X33450Y18150D01*
Y18200D01*
X33500Y18250D01*
X33450Y18300D01*
Y18350D01*
X33500Y18250D02*
X33600D01*
X32850Y15500D02*
Y15800D01*
X33000D01*
X33050Y15750D01*
Y15650D01*
X33000Y15600D01*
X32850D01*
X32950D02*
X33050Y15500D01*
X33150Y15750D02*
X33200Y15800D01*
X33300D01*
X33350Y15750D01*
Y15700D01*
X33300Y15650D01*
X33250D01*
X33300D01*
X33350Y15600D01*
Y15550D01*
X33300Y15500D01*
X33200D01*
X33150Y15550D01*
X33450Y15800D02*
X33650D01*
Y15750D01*
X33450Y15550D01*
Y15500D01*
X25975Y16026D02*
X25925Y16076D01*
X25825D01*
X25775Y16026D01*
Y15826D01*
X25825Y15776D01*
X25925D01*
X25975Y15826D01*
X26075Y15776D02*
X26175D01*
X26125D01*
Y16076D01*
X26075Y16026D01*
X26325D02*
X26375Y16076D01*
X26475D01*
X26525Y16026D01*
Y15826D01*
X26475Y15776D01*
X26375D01*
X26325Y15826D01*
Y16026D01*
X26100Y18750D02*
X26050Y18800D01*
X25950D01*
X25900Y18750D01*
Y18550D01*
X25950Y18500D01*
X26050D01*
X26100Y18550D01*
X26200D02*
X26250Y18500D01*
X26350D01*
X26400Y18550D01*
Y18750D01*
X26350Y18800D01*
X26250D01*
X26200Y18750D01*
Y18700D01*
X26250Y18650D01*
X26400D01*
X34200Y15726D02*
X34150Y15776D01*
X34050D01*
X34000Y15726D01*
Y15526D01*
X34050Y15476D01*
X34150D01*
X34200Y15526D01*
X34300Y15726D02*
X34350Y15776D01*
X34450D01*
X34500Y15726D01*
Y15676D01*
X34450Y15626D01*
X34500Y15576D01*
Y15526D01*
X34450Y15476D01*
X34350D01*
X34300Y15526D01*
Y15576D01*
X34350Y15626D01*
X34300Y15676D01*
Y15726D01*
X34350Y15626D02*
X34450D01*
X34200Y18376D02*
X34150Y18426D01*
X34050D01*
X34000Y18376D01*
Y18176D01*
X34050Y18126D01*
X34150D01*
X34200Y18176D01*
X34300Y18426D02*
X34500D01*
Y18376D01*
X34300Y18176D01*
Y18126D01*
X31350Y10400D02*
Y10700D01*
X31450Y10600D01*
X31550Y10700D01*
Y10400D01*
X31650Y10700D02*
Y10400D01*
Y10550D01*
X31850D01*
Y10700D01*
Y10400D01*
X31950Y10650D02*
X32000Y10700D01*
X32100D01*
X32150Y10650D01*
Y10600D01*
X32100Y10550D01*
X32050D01*
X32100D01*
X32150Y10500D01*
Y10450D01*
X32100Y10400D01*
X32000D01*
X31950Y10450D01*
X49335Y36615D02*
Y36915D01*
X49435Y36815D01*
X49535Y36915D01*
Y36615D01*
X49635Y36915D02*
Y36615D01*
Y36765D01*
X49835D01*
Y36915D01*
Y36615D01*
X50135D02*
X49935D01*
X50135Y36815D01*
Y36865D01*
X50085Y36915D01*
X49985D01*
X49935Y36865D01*
X9285Y36615D02*
Y36915D01*
X9385Y36815D01*
X9485Y36915D01*
Y36615D01*
X9585Y36915D02*
Y36615D01*
Y36765D01*
X9785D01*
Y36915D01*
Y36615D01*
X9885D02*
X9985D01*
X9935D01*
Y36915D01*
X9885Y36865D01*
X11150Y60650D02*
Y60400D01*
X11200Y60350D01*
X11300D01*
X11350Y60400D01*
Y60650D01*
X11600Y60350D02*
Y60650D01*
X11450Y60500D01*
X11650D01*
X40100Y43250D02*
Y43000D01*
X40150Y42950D01*
X40250D01*
X40300Y43000D01*
Y43250D01*
X40400Y43200D02*
X40450Y43250D01*
X40550D01*
X40600Y43200D01*
Y43150D01*
X40550Y43100D01*
X40500D01*
X40550D01*
X40600Y43050D01*
Y43000D01*
X40550Y42950D01*
X40450D01*
X40400Y43000D01*
X42400Y49100D02*
Y48850D01*
X42450Y48800D01*
X42550D01*
X42600Y48850D01*
Y49100D01*
X42900Y48800D02*
X42700D01*
X42900Y49000D01*
Y49050D01*
X42850Y49100D01*
X42750D01*
X42700Y49050D01*
X27450Y59850D02*
Y59600D01*
X27500Y59550D01*
X27600D01*
X27650Y59600D01*
Y59850D01*
X27750Y59550D02*
X27850D01*
X27800D01*
Y59850D01*
X27750Y59800D01*
X49250Y16819D02*
X49200Y16869D01*
X49100D01*
X49050Y16819D01*
Y16769D01*
X49100Y16719D01*
X49200D01*
X49250Y16669D01*
Y16619D01*
X49200Y16569D01*
X49100D01*
X49050Y16619D01*
X49350Y16869D02*
Y16569D01*
X49450Y16669D01*
X49550Y16569D01*
Y16869D01*
X49850Y16569D02*
X49650D01*
X49850Y16769D01*
Y16819D01*
X49800Y16869D01*
X49700D01*
X49650Y16819D01*
X13050Y11000D02*
X13000Y11050D01*
X12900D01*
X12850Y11000D01*
Y10950D01*
X12900Y10900D01*
X13000D01*
X13050Y10850D01*
Y10800D01*
X13000Y10750D01*
X12900D01*
X12850Y10800D01*
X13150Y11050D02*
Y10750D01*
X13250Y10850D01*
X13350Y10750D01*
Y11050D01*
X13450Y10750D02*
X13550D01*
X13500D01*
Y11050D01*
X13450Y11000D01*
X24500Y10050D02*
Y10350D01*
X24650D01*
X24700Y10300D01*
Y10200D01*
X24650Y10150D01*
X24500D01*
X24600D02*
X24700Y10050D01*
X24800Y10300D02*
X24850Y10350D01*
X24950D01*
X25000Y10300D01*
Y10250D01*
X24950Y10200D01*
X24900D01*
X24950D01*
X25000Y10150D01*
Y10100D01*
X24950Y10050D01*
X24850D01*
X24800Y10100D01*
X25300Y10350D02*
X25200Y10300D01*
X25100Y10200D01*
Y10100D01*
X25150Y10050D01*
X25250D01*
X25300Y10100D01*
Y10150D01*
X25250Y10200D01*
X25100D01*
X50200Y17150D02*
Y17450D01*
X50350D01*
X50400Y17400D01*
Y17300D01*
X50350Y17250D01*
X50200D01*
X50300D02*
X50400Y17150D01*
X50500Y17400D02*
X50550Y17450D01*
X50650D01*
X50700Y17400D01*
Y17350D01*
X50650Y17300D01*
X50600D01*
X50650D01*
X50700Y17250D01*
Y17200D01*
X50650Y17150D01*
X50550D01*
X50500Y17200D01*
X51000Y17450D02*
X50800D01*
Y17300D01*
X50900Y17350D01*
X50950D01*
X51000Y17300D01*
Y17200D01*
X50950Y17150D01*
X50850D01*
X50800Y17200D01*
X36050Y59900D02*
X35750D01*
Y60050D01*
X35800Y60100D01*
X35900D01*
X35950Y60050D01*
Y59900D01*
Y60000D02*
X36050Y60100D01*
X35800Y60200D02*
X35750Y60250D01*
Y60350D01*
X35800Y60400D01*
X35850D01*
X35900Y60350D01*
Y60300D01*
Y60350D01*
X35950Y60400D01*
X36000D01*
X36050Y60350D01*
Y60250D01*
X36000Y60200D01*
X36050Y60650D02*
X35750D01*
X35900Y60500D01*
Y60700D01*
X50250Y29550D02*
Y29850D01*
X50400D01*
X50450Y29800D01*
Y29700D01*
X50400Y29650D01*
X50250D01*
X50350D02*
X50450Y29550D01*
X50550Y29800D02*
X50600Y29850D01*
X50700D01*
X50750Y29800D01*
Y29750D01*
X50700Y29700D01*
X50650D01*
X50700D01*
X50750Y29650D01*
Y29600D01*
X50700Y29550D01*
X50600D01*
X50550Y29600D01*
X50850Y29800D02*
X50900Y29850D01*
X51000D01*
X51050Y29800D01*
Y29750D01*
X51000Y29700D01*
X50950D01*
X51000D01*
X51050Y29650D01*
Y29600D01*
X51000Y29550D01*
X50900D01*
X50850Y29600D01*
X50100Y49750D02*
Y50050D01*
X50250D01*
X50300Y50000D01*
Y49900D01*
X50250Y49850D01*
X50100D01*
X50200D02*
X50300Y49750D01*
X50400Y50000D02*
X50450Y50050D01*
X50550D01*
X50600Y50000D01*
Y49950D01*
X50550Y49900D01*
X50500D01*
X50550D01*
X50600Y49850D01*
Y49800D01*
X50550Y49750D01*
X50450D01*
X50400Y49800D01*
X50900Y49750D02*
X50700D01*
X50900Y49950D01*
Y50000D01*
X50850Y50050D01*
X50750D01*
X50700Y50000D01*
X9400Y16000D02*
Y16300D01*
X9550D01*
X9600Y16250D01*
Y16150D01*
X9550Y16100D01*
X9400D01*
X9500D02*
X9600Y16000D01*
X9700Y16250D02*
X9750Y16300D01*
X9850D01*
X9900Y16250D01*
Y16200D01*
X9850Y16150D01*
X9800D01*
X9850D01*
X9900Y16100D01*
Y16050D01*
X9850Y16000D01*
X9750D01*
X9700Y16050D01*
X10000Y16000D02*
X10100D01*
X10050D01*
Y16300D01*
X10000Y16250D01*
X9500Y26400D02*
Y26700D01*
X9650D01*
X9700Y26650D01*
Y26550D01*
X9650Y26500D01*
X9500D01*
X9600D02*
X9700Y26400D01*
X9800Y26650D02*
X9850Y26700D01*
X9950D01*
X10000Y26650D01*
Y26600D01*
X9950Y26550D01*
X9900D01*
X9950D01*
X10000Y26500D01*
Y26450D01*
X9950Y26400D01*
X9850D01*
X9800Y26450D01*
X10100Y26650D02*
X10150Y26700D01*
X10250D01*
X10300Y26650D01*
Y26450D01*
X10250Y26400D01*
X10150D01*
X10100Y26450D01*
Y26650D01*
X9400Y47000D02*
Y47300D01*
X9550D01*
X9600Y47250D01*
Y47150D01*
X9550Y47100D01*
X9400D01*
X9500D02*
X9600Y47000D01*
X9900D02*
X9700D01*
X9900Y47200D01*
Y47250D01*
X9850Y47300D01*
X9750D01*
X9700Y47250D01*
X10000Y47050D02*
X10050Y47000D01*
X10150D01*
X10200Y47050D01*
Y47250D01*
X10150Y47300D01*
X10050D01*
X10000Y47250D01*
Y47200D01*
X10050Y47150D01*
X10200D01*
X12400Y51650D02*
Y51950D01*
X12550D01*
X12600Y51900D01*
Y51800D01*
X12550Y51750D01*
X12400D01*
X12500D02*
X12600Y51650D01*
X12900D02*
X12700D01*
X12900Y51850D01*
Y51900D01*
X12850Y51950D01*
X12750D01*
X12700Y51900D01*
X13000D02*
X13050Y51950D01*
X13150D01*
X13200Y51900D01*
Y51850D01*
X13150Y51800D01*
X13200Y51750D01*
Y51700D01*
X13150Y51650D01*
X13050D01*
X13000Y51700D01*
Y51750D01*
X13050Y51800D01*
X13000Y51850D01*
Y51900D01*
X13050Y51800D02*
X13150D01*
X40050Y41100D02*
Y41400D01*
X40200D01*
X40250Y41350D01*
Y41250D01*
X40200Y41200D01*
X40050D01*
X40150D02*
X40250Y41100D01*
X40550D02*
X40350D01*
X40550Y41300D01*
Y41350D01*
X40500Y41400D01*
X40400D01*
X40350Y41350D01*
X40650Y41400D02*
X40850D01*
Y41350D01*
X40650Y41150D01*
Y41100D01*
X46584Y42800D02*
Y43100D01*
X46734D01*
X46784Y43050D01*
Y42950D01*
X46734Y42900D01*
X46584D01*
X46684D02*
X46784Y42800D01*
X47084D02*
X46884D01*
X47084Y43000D01*
Y43050D01*
X47034Y43100D01*
X46934D01*
X46884Y43050D01*
X47384Y43100D02*
X47284Y43050D01*
X47184Y42950D01*
Y42850D01*
X47234Y42800D01*
X47334D01*
X47384Y42850D01*
Y42900D01*
X47334Y42950D01*
X47184D01*
X40050Y41950D02*
Y42250D01*
X40200D01*
X40250Y42200D01*
Y42100D01*
X40200Y42050D01*
X40050D01*
X40150D02*
X40250Y41950D01*
X40550D02*
X40350D01*
X40550Y42150D01*
Y42200D01*
X40500Y42250D01*
X40400D01*
X40350Y42200D01*
X40850Y42250D02*
X40650D01*
Y42100D01*
X40750Y42150D01*
X40800D01*
X40850Y42100D01*
Y42000D01*
X40800Y41950D01*
X40700D01*
X40650Y42000D01*
X46600Y44450D02*
Y44750D01*
X46750D01*
X46800Y44700D01*
Y44600D01*
X46750Y44550D01*
X46600D01*
X46700D02*
X46800Y44450D01*
X47100D02*
X46900D01*
X47100Y44650D01*
Y44700D01*
X47050Y44750D01*
X46950D01*
X46900Y44700D01*
X47350Y44450D02*
Y44750D01*
X47200Y44600D01*
X47400D01*
X48466Y49450D02*
Y49750D01*
X48616D01*
X48666Y49700D01*
Y49600D01*
X48616Y49550D01*
X48466D01*
X48566D02*
X48666Y49450D01*
X48966D02*
X48766D01*
X48966Y49650D01*
Y49700D01*
X48916Y49750D01*
X48816D01*
X48766Y49700D01*
X49066D02*
X49116Y49750D01*
X49216D01*
X49266Y49700D01*
Y49650D01*
X49216Y49600D01*
X49166D01*
X49216D01*
X49266Y49550D01*
Y49500D01*
X49216Y49450D01*
X49116D01*
X49066Y49500D01*
X44050Y42550D02*
Y42850D01*
X44200D01*
X44250Y42800D01*
Y42700D01*
X44200Y42650D01*
X44050D01*
X44150D02*
X44250Y42550D01*
X44550D02*
X44350D01*
X44550Y42750D01*
Y42800D01*
X44500Y42850D01*
X44400D01*
X44350Y42800D01*
X44850Y42550D02*
X44650D01*
X44850Y42750D01*
Y42800D01*
X44800Y42850D01*
X44700D01*
X44650Y42800D01*
X48450Y47800D02*
Y48100D01*
X48600D01*
X48650Y48050D01*
Y47950D01*
X48600Y47900D01*
X48450D01*
X48550D02*
X48650Y47800D01*
X48950D02*
X48750D01*
X48950Y48000D01*
Y48050D01*
X48900Y48100D01*
X48800D01*
X48750Y48050D01*
X49050Y47800D02*
X49150D01*
X49100D01*
Y48100D01*
X49050Y48050D01*
X40200Y44600D02*
Y44900D01*
X40350D01*
X40400Y44850D01*
Y44750D01*
X40350Y44700D01*
X40200D01*
X40300D02*
X40400Y44600D01*
X40700D02*
X40500D01*
X40700Y44800D01*
Y44850D01*
X40650Y44900D01*
X40550D01*
X40500Y44850D01*
X40800D02*
X40850Y44900D01*
X40950D01*
X41000Y44850D01*
Y44650D01*
X40950Y44600D01*
X40850D01*
X40800Y44650D01*
Y44850D01*
X44025Y41550D02*
Y41850D01*
X44175D01*
X44225Y41800D01*
Y41700D01*
X44175Y41650D01*
X44025D01*
X44125D02*
X44225Y41550D01*
X44325D02*
X44425D01*
X44375D01*
Y41850D01*
X44325Y41800D01*
X44575Y41600D02*
X44625Y41550D01*
X44725D01*
X44775Y41600D01*
Y41800D01*
X44725Y41850D01*
X44625D01*
X44575Y41800D01*
Y41750D01*
X44625Y41700D01*
X44775D01*
X36075Y46600D02*
Y46900D01*
X36225D01*
X36275Y46850D01*
Y46750D01*
X36225Y46700D01*
X36075D01*
X36175D02*
X36275Y46600D01*
X36375D02*
X36475D01*
X36425D01*
Y46900D01*
X36375Y46850D01*
X36625D02*
X36675Y46900D01*
X36775D01*
X36825Y46850D01*
Y46800D01*
X36775Y46750D01*
X36825Y46700D01*
Y46650D01*
X36775Y46600D01*
X36675D01*
X36625Y46650D01*
Y46700D01*
X36675Y46750D01*
X36625Y46800D01*
Y46850D01*
X36675Y46750D02*
X36775D01*
X36125Y49850D02*
Y50150D01*
X36275D01*
X36325Y50100D01*
Y50000D01*
X36275Y49950D01*
X36125D01*
X36225D02*
X36325Y49850D01*
X36425D02*
X36525D01*
X36475D01*
Y50150D01*
X36425Y50100D01*
X36675Y50150D02*
X36875D01*
Y50100D01*
X36675Y49900D01*
Y49850D01*
X44025Y43600D02*
Y43900D01*
X44175D01*
X44225Y43850D01*
Y43750D01*
X44175Y43700D01*
X44025D01*
X44125D02*
X44225Y43600D01*
X44325D02*
X44425D01*
X44375D01*
Y43900D01*
X44325Y43850D01*
X44775Y43900D02*
X44675Y43850D01*
X44575Y43750D01*
Y43650D01*
X44625Y43600D01*
X44725D01*
X44775Y43650D01*
Y43700D01*
X44725Y43750D01*
X44575D01*
X44031Y44450D02*
Y44750D01*
X44181D01*
X44231Y44700D01*
Y44600D01*
X44181Y44550D01*
X44031D01*
X44131D02*
X44231Y44450D01*
X44331D02*
X44431D01*
X44381D01*
Y44750D01*
X44331Y44700D01*
X44780Y44750D02*
X44580D01*
Y44600D01*
X44680Y44650D01*
X44730D01*
X44780Y44600D01*
Y44500D01*
X44730Y44450D01*
X44630D01*
X44580Y44500D01*
X45925Y45750D02*
Y46050D01*
X46075D01*
X46125Y46000D01*
Y45900D01*
X46075Y45850D01*
X45925D01*
X46025D02*
X46125Y45750D01*
X46225D02*
X46325D01*
X46275D01*
Y46050D01*
X46225Y46000D01*
X46625Y45750D02*
Y46050D01*
X46475Y45900D01*
X46675D01*
X37675Y45700D02*
Y46000D01*
X37825D01*
X37875Y45950D01*
Y45850D01*
X37825Y45800D01*
X37675D01*
X37775D02*
X37875Y45700D01*
X37975D02*
X38075D01*
X38025D01*
Y46000D01*
X37975Y45950D01*
X38225D02*
X38275Y46000D01*
X38375D01*
X38425Y45950D01*
Y45900D01*
X38375Y45850D01*
X38325D01*
X38375D01*
X38425Y45800D01*
Y45750D01*
X38375Y45700D01*
X38275D01*
X38225Y45750D01*
X45875Y46750D02*
Y47050D01*
X46025D01*
X46075Y47000D01*
Y46900D01*
X46025Y46850D01*
X45875D01*
X45975D02*
X46075Y46750D01*
X46175D02*
X46275D01*
X46225D01*
Y47050D01*
X46175Y47000D01*
X46625Y46750D02*
X46425D01*
X46625Y46950D01*
Y47000D01*
X46575Y47050D01*
X46475D01*
X46425Y47000D01*
X37975Y46800D02*
Y47100D01*
X38125D01*
X38175Y47050D01*
Y46950D01*
X38125Y46900D01*
X37975D01*
X38075D02*
X38175Y46800D01*
X38275D02*
X38375D01*
X38325D01*
Y47100D01*
X38275Y47050D01*
X38525Y46800D02*
X38625D01*
X38575D01*
Y47100D01*
X38525Y47050D01*
X37675Y44800D02*
Y45100D01*
X37825D01*
X37875Y45050D01*
Y44950D01*
X37825Y44900D01*
X37675D01*
X37775D02*
X37875Y44800D01*
X37975D02*
X38075D01*
X38025D01*
Y45100D01*
X37975Y45050D01*
X38225D02*
X38275Y45100D01*
X38375D01*
X38425Y45050D01*
Y44850D01*
X38375Y44800D01*
X38275D01*
X38225Y44850D01*
Y45050D01*
X46100Y48850D02*
Y49150D01*
X46250D01*
X46300Y49100D01*
Y49000D01*
X46250Y48950D01*
X46100D01*
X46200D02*
X46300Y48850D01*
X46400Y48900D02*
X46450Y48850D01*
X46550D01*
X46600Y48900D01*
Y49100D01*
X46550Y49150D01*
X46450D01*
X46400Y49100D01*
Y49050D01*
X46450Y49000D01*
X46600D01*
X45895Y47800D02*
Y48100D01*
X46045D01*
X46094Y48050D01*
Y47950D01*
X46045Y47900D01*
X45895D01*
X45995D02*
X46094Y47800D01*
X46194Y48050D02*
X46244Y48100D01*
X46344D01*
X46394Y48050D01*
Y48000D01*
X46344Y47950D01*
X46394Y47900D01*
Y47850D01*
X46344Y47800D01*
X46244D01*
X46194Y47850D01*
Y47900D01*
X46244Y47950D01*
X46194Y48000D01*
Y48050D01*
X46244Y47950D02*
X46344D01*
X38100Y47800D02*
Y48100D01*
X38250D01*
X38300Y48050D01*
Y47950D01*
X38250Y47900D01*
X38100D01*
X38200D02*
X38300Y47800D01*
X38400Y48100D02*
X38600D01*
Y48050D01*
X38400Y47850D01*
Y47800D01*
X46100Y49800D02*
Y50100D01*
X46250D01*
X46300Y50050D01*
Y49950D01*
X46250Y49900D01*
X46100D01*
X46200D02*
X46300Y49800D01*
X46600Y50100D02*
X46500Y50050D01*
X46400Y49950D01*
Y49850D01*
X46450Y49800D01*
X46550D01*
X46600Y49850D01*
Y49900D01*
X46550Y49950D01*
X46400D01*
X38100Y48800D02*
Y49100D01*
X38250D01*
X38300Y49050D01*
Y48950D01*
X38250Y48900D01*
X38100D01*
X38200D02*
X38300Y48800D01*
X38600Y49100D02*
X38400D01*
Y48950D01*
X38500Y49000D01*
X38550D01*
X38600Y48950D01*
Y48850D01*
X38550Y48800D01*
X38450D01*
X38400Y48850D01*
X46195Y23680D02*
Y23980D01*
X46345D01*
X46395Y23930D01*
Y23830D01*
X46345Y23780D01*
X46195D01*
X46295D02*
X46395Y23680D01*
X46645D02*
Y23980D01*
X46495Y23830D01*
X46695D01*
X42450Y9150D02*
Y9450D01*
X42600D01*
X42650Y9400D01*
Y9300D01*
X42600Y9250D01*
X42450D01*
X42550D02*
X42650Y9150D01*
X42750Y9400D02*
X42800Y9450D01*
X42900D01*
X42950Y9400D01*
Y9350D01*
X42900Y9300D01*
X42850D01*
X42900D01*
X42950Y9250D01*
Y9200D01*
X42900Y9150D01*
X42800D01*
X42750Y9200D01*
X13300Y23500D02*
Y23800D01*
X13450D01*
X13500Y23750D01*
Y23650D01*
X13450Y23600D01*
X13300D01*
X13400D02*
X13500Y23500D01*
X13800D02*
X13600D01*
X13800Y23700D01*
Y23750D01*
X13750Y23800D01*
X13650D01*
X13600Y23750D01*
X17850Y11800D02*
Y12100D01*
X18000D01*
X18050Y12050D01*
Y11950D01*
X18000Y11900D01*
X17850D01*
X17950D02*
X18050Y11800D01*
X18150D02*
X18250D01*
X18200D01*
Y12100D01*
X18150Y12050D01*
X15950Y60750D02*
Y60950D01*
X15900Y61000D01*
X15800D01*
X15750Y60950D01*
Y60750D01*
X15800Y60700D01*
X15900D01*
X15850Y60800D02*
X15950Y60700D01*
X15900D02*
X15950Y60750D01*
X16050Y60700D02*
X16150D01*
X16100D01*
Y61000D01*
X16050Y60950D01*
X48750Y12450D02*
Y12750D01*
X48900D01*
X48950Y12700D01*
Y12600D01*
X48900Y12550D01*
X48750D01*
X49050Y12750D02*
X49250D01*
Y12700D01*
X49050Y12500D01*
Y12450D01*
X24800Y60500D02*
Y60800D01*
X24950D01*
X25000Y60750D01*
Y60650D01*
X24950Y60600D01*
X24800D01*
X25300Y60800D02*
X25200Y60750D01*
X25100Y60650D01*
Y60550D01*
X25150Y60500D01*
X25250D01*
X25300Y60550D01*
Y60600D01*
X25250Y60650D01*
X25100D01*
X33900Y60600D02*
Y60900D01*
X34050D01*
X34100Y60850D01*
Y60750D01*
X34050Y60700D01*
X33900D01*
X34400Y60900D02*
X34200D01*
Y60750D01*
X34300Y60800D01*
X34350D01*
X34400Y60750D01*
Y60650D01*
X34350Y60600D01*
X34250D01*
X34200Y60650D01*
X47700Y58800D02*
Y59100D01*
X47850D01*
X47900Y59050D01*
Y58950D01*
X47850Y58900D01*
X47700D01*
X48150Y58800D02*
Y59100D01*
X48000Y58950D01*
X48200D01*
X47700Y37200D02*
Y37500D01*
X47850D01*
X47900Y37450D01*
Y37350D01*
X47850Y37300D01*
X47700D01*
X48000Y37450D02*
X48050Y37500D01*
X48150D01*
X48200Y37450D01*
Y37400D01*
X48150Y37350D01*
X48100D01*
X48150D01*
X48200Y37300D01*
Y37250D01*
X48150Y37200D01*
X48050D01*
X48000Y37250D01*
X11800Y37250D02*
Y37550D01*
X11950D01*
X12000Y37500D01*
Y37400D01*
X11950Y37350D01*
X11800D01*
X12300Y37250D02*
X12100D01*
X12300Y37450D01*
Y37500D01*
X12250Y37550D01*
X12150D01*
X12100Y37500D01*
X32300Y12350D02*
Y12650D01*
X32450D01*
X32500Y12600D01*
Y12500D01*
X32450Y12450D01*
X32300D01*
X32600Y12350D02*
X32700D01*
X32650D01*
Y12650D01*
X32600Y12600D01*
X29900Y20650D02*
X29800D01*
X29850D01*
Y20400D01*
X29800Y20350D01*
X29750D01*
X29700Y20400D01*
X30000D02*
X30050Y20350D01*
X30150D01*
X30200Y20400D01*
Y20600D01*
X30150Y20650D01*
X30050D01*
X30000Y20600D01*
Y20550D01*
X30050Y20500D01*
X30200D01*
X47540Y21510D02*
X47440D01*
X47490D01*
Y21260D01*
X47440Y21210D01*
X47390D01*
X47340Y21260D01*
X47640Y21460D02*
X47690Y21510D01*
X47790D01*
X47840Y21460D01*
Y21410D01*
X47790Y21360D01*
X47840Y21310D01*
Y21260D01*
X47790Y21210D01*
X47690D01*
X47640Y21260D01*
Y21310D01*
X47690Y21360D01*
X47640Y21410D01*
Y21460D01*
X47690Y21360D02*
X47790D01*
X43450Y10550D02*
X43350D01*
X43400D01*
Y10300D01*
X43350Y10250D01*
X43300D01*
X43250Y10300D01*
X43550Y10550D02*
X43750D01*
Y10500D01*
X43550Y10300D01*
Y10250D01*
X12355Y24575D02*
X12255D01*
X12305D01*
Y24325D01*
X12255Y24275D01*
X12205D01*
X12155Y24325D01*
X12655Y24575D02*
X12555Y24525D01*
X12455Y24425D01*
Y24325D01*
X12505Y24275D01*
X12605D01*
X12655Y24325D01*
Y24375D01*
X12605Y24425D01*
X12455D01*
X29950Y16050D02*
X29850D01*
X29900D01*
Y15800D01*
X29850Y15750D01*
X29800D01*
X29750Y15800D01*
X30250Y16050D02*
X30050D01*
Y15900D01*
X30150Y15950D01*
X30200D01*
X30250Y15900D01*
Y15800D01*
X30200Y15750D01*
X30100D01*
X30050Y15800D01*
X24150Y12900D02*
X24050D01*
X24100D01*
Y12650D01*
X24050Y12600D01*
X24000D01*
X23950Y12650D01*
X24400Y12600D02*
Y12900D01*
X24250Y12750D01*
X24450D01*
X35750Y12900D02*
X35650D01*
X35700D01*
Y12650D01*
X35650Y12600D01*
X35600D01*
X35550Y12650D01*
X35850Y12850D02*
X35900Y12900D01*
X36000D01*
X36050Y12850D01*
Y12800D01*
X36000Y12750D01*
X35950D01*
X36000D01*
X36050Y12700D01*
Y12650D01*
X36000Y12600D01*
X35900D01*
X35850Y12650D01*
X38250Y20950D02*
X38150D01*
X38200D01*
Y20700D01*
X38150Y20650D01*
X38100D01*
X38050Y20700D01*
X38550Y20650D02*
X38350D01*
X38550Y20850D01*
Y20900D01*
X38500Y20950D01*
X38400D01*
X38350Y20900D01*
X21800Y20950D02*
X21700D01*
X21750D01*
Y20700D01*
X21700Y20650D01*
X21650D01*
X21600Y20700D01*
X21900Y20650D02*
X22000D01*
X21950D01*
Y20950D01*
X21900Y20900D01*
X26550Y10350D02*
Y10050D01*
X26700D01*
X26750Y10100D01*
Y10300D01*
X26700Y10350D01*
X26550D01*
X26850Y10300D02*
X26900Y10350D01*
X27000D01*
X27050Y10300D01*
Y10250D01*
X27000Y10200D01*
X27050Y10150D01*
Y10100D01*
X27000Y10050D01*
X26900D01*
X26850Y10100D01*
Y10150D01*
X26900Y10200D01*
X26850Y10250D01*
Y10300D01*
X26900Y10200D02*
X27000D01*
X50350Y22000D02*
Y21700D01*
X50500D01*
X50550Y21750D01*
Y21950D01*
X50500Y22000D01*
X50350D01*
X50650D02*
X50850D01*
Y21950D01*
X50650Y21750D01*
Y21700D01*
X40300Y60050D02*
X40600D01*
Y60200D01*
X40550Y60250D01*
X40350D01*
X40300Y60200D01*
Y60050D01*
Y60550D02*
X40350Y60450D01*
X40450Y60350D01*
X40550D01*
X40600Y60400D01*
Y60500D01*
X40550Y60550D01*
X40500D01*
X40450Y60500D01*
Y60350D01*
X49613Y32639D02*
Y32339D01*
X49763D01*
X49813Y32389D01*
Y32589D01*
X49763Y32639D01*
X49613D01*
X50113D02*
X49913D01*
Y32489D01*
X50013Y32539D01*
X50063D01*
X50113Y32489D01*
Y32389D01*
X50063Y32339D01*
X49963D01*
X49913Y32389D01*
X50250Y54600D02*
Y54300D01*
X50400D01*
X50450Y54350D01*
Y54550D01*
X50400Y54600D01*
X50250D01*
X50700Y54300D02*
Y54600D01*
X50550Y54450D01*
X50750D01*
X9500Y11750D02*
Y11450D01*
X9650D01*
X9700Y11500D01*
Y11700D01*
X9650Y11750D01*
X9500D01*
X9800Y11700D02*
X9850Y11750D01*
X9950D01*
X10000Y11700D01*
Y11650D01*
X9950Y11600D01*
X9900D01*
X9950D01*
X10000Y11550D01*
Y11500D01*
X9950Y11450D01*
X9850D01*
X9800Y11500D01*
X9650Y31250D02*
Y30950D01*
X9800D01*
X9850Y31000D01*
Y31200D01*
X9800Y31250D01*
X9650D01*
X10150Y30950D02*
X9950D01*
X10150Y31150D01*
Y31200D01*
X10100Y31250D01*
X10000D01*
X9950Y31200D01*
X9600Y42750D02*
Y42450D01*
X9750D01*
X9800Y42500D01*
Y42700D01*
X9750Y42750D01*
X9600D01*
X9900Y42450D02*
X10000D01*
X9950D01*
Y42750D01*
X9900Y42700D01*
X11400Y51900D02*
X11350Y51950D01*
X11250D01*
X11200Y51900D01*
Y51700D01*
X11250Y51650D01*
X11350D01*
X11400Y51700D01*
X11700Y51950D02*
X11600Y51900D01*
X11500Y51800D01*
Y51700D01*
X11550Y51650D01*
X11650D01*
X11700Y51700D01*
Y51750D01*
X11650Y51800D01*
X11500D01*
X10100Y51900D02*
X10050Y51950D01*
X9950D01*
X9900Y51900D01*
Y51700D01*
X9950Y51650D01*
X10050D01*
X10100Y51700D01*
X10400Y51950D02*
X10200D01*
Y51800D01*
X10300Y51850D01*
X10350D01*
X10400Y51800D01*
Y51700D01*
X10350Y51650D01*
X10250D01*
X10200Y51700D01*
X46745Y43850D02*
X46695Y43900D01*
X46595D01*
X46545Y43850D01*
Y43650D01*
X46595Y43600D01*
X46695D01*
X46745Y43650D01*
X46995Y43600D02*
Y43900D01*
X46845Y43750D01*
X47045D01*
X48650Y48850D02*
X48600Y48900D01*
X48500D01*
X48450Y48850D01*
Y48650D01*
X48500Y48600D01*
X48600D01*
X48650Y48650D01*
X48750Y48850D02*
X48800Y48900D01*
X48900D01*
X48950Y48850D01*
Y48800D01*
X48900Y48750D01*
X48850D01*
X48900D01*
X48950Y48700D01*
Y48650D01*
X48900Y48600D01*
X48800D01*
X48750Y48650D01*
X37300Y46850D02*
X37250Y46900D01*
X37150D01*
X37100Y46850D01*
Y46650D01*
X37150Y46600D01*
X37250D01*
X37300Y46650D01*
X37600Y46600D02*
X37400D01*
X37600Y46800D01*
Y46850D01*
X37550Y46900D01*
X37450D01*
X37400Y46850D01*
X37350Y49950D02*
X37300Y50000D01*
X37200D01*
X37150Y49950D01*
Y49750D01*
X37200Y49700D01*
X37300D01*
X37350Y49750D01*
X37450Y49700D02*
X37550D01*
X37500D01*
Y50000D01*
X37450Y49950D01*
D15*
X13500Y13850D02*
X13300Y14050D01*
X12900D01*
X12700Y13850D01*
Y13650D01*
X12900Y13450D01*
X13300D01*
X13500Y13250D01*
Y13050D01*
X13300Y12850D01*
X12900D01*
X12700Y13050D01*
X13900Y14050D02*
X14699D01*
X14299D01*
Y12850D01*
X15099D02*
Y13650D01*
X15499Y14050D01*
X15899Y13650D01*
Y12850D01*
Y13450D01*
X15099D01*
X16299Y12850D02*
Y14050D01*
X16899D01*
X17099Y13850D01*
Y13450D01*
X16899Y13250D01*
X16299D01*
X16699D02*
X17099Y12850D01*
X17498Y14050D02*
X18298D01*
X17898D01*
Y12850D01*
X15850Y26050D02*
Y26850D01*
X16250Y27249D01*
X16650Y26850D01*
Y26050D01*
Y26650D01*
X15850D01*
X17050Y26050D02*
X17649D01*
X17849Y26250D01*
X17649Y26450D01*
X17250D01*
X17050Y26650D01*
X17250Y26850D01*
X17849D01*
X18249Y27249D02*
Y26050D01*
Y26650D01*
X18449Y26850D01*
X18849D01*
X19049Y26650D01*
Y26050D01*
X19449D02*
X19849D01*
X19649D01*
Y27249D01*
X19449D01*
X21048Y26050D02*
X20648D01*
X20449Y26250D01*
Y26650D01*
X20648Y26850D01*
X21048D01*
X21248Y26650D01*
Y26450D01*
X20449D01*
X21648Y26850D02*
Y26250D01*
X21848Y26050D01*
X22448D01*
Y25850D01*
X22248Y25650D01*
X22048D01*
X22448Y26050D02*
Y26850D01*
X24047Y27249D02*
X24847D01*
Y27050D01*
X24047Y26250D01*
Y26050D01*
X24847D01*
X25247Y27249D02*
Y26050D01*
Y26650D01*
X25447Y26850D01*
X25847D01*
X26047Y26650D01*
Y26050D01*
X26647Y26850D02*
X27046D01*
X27246Y26650D01*
Y26050D01*
X26647D01*
X26447Y26250D01*
X26647Y26450D01*
X27246D01*
X27646Y26050D02*
Y26850D01*
X28246D01*
X28446Y26650D01*
Y26050D01*
X29246Y25650D02*
X29446D01*
X29646Y25850D01*
Y26850D01*
X29046D01*
X28846Y26650D01*
Y26250D01*
X29046Y26050D01*
X29646D01*
X31445Y26850D02*
X31845D01*
X32045Y26650D01*
Y26050D01*
X31445D01*
X31245Y26250D01*
X31445Y26450D01*
X32045D01*
X32445Y26050D02*
Y26850D01*
X33044D01*
X33244Y26650D01*
Y26050D01*
X34444Y27249D02*
Y26050D01*
X33844D01*
X33644Y26250D01*
Y26650D01*
X33844Y26850D01*
X34444D01*
X36843Y27050D02*
X36643Y27249D01*
X36243D01*
X36043Y27050D01*
Y26850D01*
X36243Y26650D01*
X36643D01*
X36843Y26450D01*
Y26250D01*
X36643Y26050D01*
X36243D01*
X36043Y26250D01*
X37243Y26850D02*
Y26250D01*
X37443Y26050D01*
X38043D01*
Y26850D01*
X38443Y26050D02*
Y26850D01*
X39042D01*
X39242Y26650D01*
Y26050D01*
X40842Y27249D02*
Y26050D01*
X41642D01*
X42641D02*
X42241D01*
X42042Y26250D01*
Y26650D01*
X42241Y26850D01*
X42641D01*
X42841Y26650D01*
Y26450D01*
X42042D01*
X43841Y26050D02*
X43441D01*
X43241Y26250D01*
Y26650D01*
X43441Y26850D01*
X43841D01*
X44041Y26650D01*
Y26450D01*
X43241D01*
D16*
X23952Y36279D02*
Y37179D01*
X24402D01*
X24552Y37029D01*
Y36729D01*
X24402Y36579D01*
X23952D01*
X25451Y37029D02*
X25301Y37179D01*
X25002D01*
X24852Y37029D01*
Y36429D01*
X25002Y36279D01*
X25301D01*
X25451Y36429D01*
X25751Y37179D02*
Y36279D01*
X26201D01*
X26351Y36429D01*
Y36579D01*
X26201Y36729D01*
X25751D01*
X26201D01*
X26351Y36879D01*
Y37029D01*
X26201Y37179D01*
X25751D01*
X26651Y36279D02*
X27101D01*
X27251Y36429D01*
X27101Y36579D01*
X26801D01*
X26651Y36729D01*
X26801Y36879D01*
X27251D01*
X28600D02*
X28900D01*
X29050Y36729D01*
Y36279D01*
X28600D01*
X28450Y36429D01*
X28600Y36579D01*
X29050D01*
X29350Y36879D02*
Y36279D01*
Y36579D01*
X29500Y36729D01*
X29650Y36879D01*
X29800D01*
X30700Y36279D02*
X30400D01*
X30250Y36429D01*
Y36729D01*
X30400Y36879D01*
X30700D01*
X30850Y36729D01*
Y36579D01*
X30250D01*
X32349Y35979D02*
X32499D01*
X32649Y36129D01*
Y36879D01*
X32199D01*
X32049Y36729D01*
Y36429D01*
X32199Y36279D01*
X32649D01*
X32949Y36879D02*
Y36279D01*
Y36579D01*
X33099Y36729D01*
X33249Y36879D01*
X33399D01*
X34299Y36279D02*
X33999D01*
X33849Y36429D01*
Y36729D01*
X33999Y36879D01*
X34299D01*
X34449Y36729D01*
Y36579D01*
X33849D01*
X34898Y36879D02*
X35198D01*
X35348Y36729D01*
Y36279D01*
X34898D01*
X34748Y36429D01*
X34898Y36579D01*
X35348D01*
X35798Y37029D02*
Y36879D01*
X35648D01*
X35948D01*
X35798D01*
Y36429D01*
X35948Y36279D01*
X17429Y35139D02*
Y34689D01*
X17579Y34539D01*
X17729Y34689D01*
X17879Y34539D01*
X18029Y34689D01*
Y35139D01*
X18779Y34539D02*
X18479D01*
X18329Y34689D01*
Y34989D01*
X18479Y35139D01*
X18779D01*
X18929Y34989D01*
Y34839D01*
X18329D01*
X20128Y34539D02*
X20578D01*
X20728Y34689D01*
X20578Y34839D01*
X20278D01*
X20128Y34989D01*
X20278Y35139D01*
X20728D01*
X21028Y34240D02*
Y35139D01*
X21478D01*
X21628Y34989D01*
Y34689D01*
X21478Y34539D01*
X21028D01*
X22377D02*
X22078D01*
X21928Y34689D01*
Y34989D01*
X22078Y35139D01*
X22377D01*
X22527Y34989D01*
Y34839D01*
X21928D01*
X22827Y34539D02*
Y35139D01*
X23277D01*
X23427Y34989D01*
Y34539D01*
X23877Y35289D02*
Y35139D01*
X23727D01*
X24027D01*
X23877D01*
Y34689D01*
X24027Y34539D01*
X25376D02*
X25826D01*
X25976Y34689D01*
X25826Y34839D01*
X25526D01*
X25376Y34989D01*
X25526Y35139D01*
X25976D01*
X26426Y34539D02*
X26726D01*
X26876Y34689D01*
Y34989D01*
X26726Y35139D01*
X26426D01*
X26276Y34989D01*
Y34689D01*
X26426Y34539D01*
X28076D02*
Y35139D01*
X28226D01*
X28376Y34989D01*
Y34539D01*
Y34989D01*
X28525Y35139D01*
X28675Y34989D01*
Y34539D01*
X28975Y35139D02*
Y34689D01*
X29125Y34539D01*
X29575D01*
Y35139D01*
X30475D02*
X30025D01*
X29875Y34989D01*
Y34689D01*
X30025Y34539D01*
X30475D01*
X30775Y35439D02*
Y34539D01*
Y34989D01*
X30925Y35139D01*
X31225D01*
X31375Y34989D01*
Y34539D01*
X32724Y35289D02*
Y35139D01*
X32574D01*
X32874D01*
X32724D01*
Y34689D01*
X32874Y34539D01*
X33324D02*
X33624D01*
X33474D01*
Y35139D01*
X33324D01*
X34074Y34539D02*
Y35139D01*
X34224D01*
X34374Y34989D01*
Y34539D01*
Y34989D01*
X34524Y35139D01*
X34673Y34989D01*
Y34539D01*
X35423D02*
X35123D01*
X34973Y34689D01*
Y34989D01*
X35123Y35139D01*
X35423D01*
X35573Y34989D01*
Y34839D01*
X34973D01*
X36923Y34539D02*
X37223D01*
X37373Y34689D01*
Y34989D01*
X37223Y35139D01*
X36923D01*
X36773Y34989D01*
Y34689D01*
X36923Y34539D01*
X37673D02*
Y35139D01*
X38122D01*
X38272Y34989D01*
Y34539D01*
X39622Y35289D02*
Y35139D01*
X39472D01*
X39772D01*
X39622D01*
Y34689D01*
X39772Y34539D01*
X40222Y35439D02*
Y34539D01*
Y34989D01*
X40372Y35139D01*
X40672D01*
X40821Y34989D01*
Y34539D01*
X41121D02*
X41421D01*
X41271D01*
Y35139D01*
X41121D01*
X41871Y34539D02*
X42321D01*
X42471Y34689D01*
X42321Y34839D01*
X42021D01*
X41871Y34989D01*
X42021Y35139D01*
X42471D01*
X21703Y32500D02*
Y33400D01*
X22153D01*
X22302Y33250D01*
Y32950D01*
X22153Y32800D01*
X21703D01*
X22602D02*
X22902D01*
X22752D01*
Y33700D01*
X22602D01*
X23802Y32800D02*
X23502D01*
X23352Y32950D01*
Y33250D01*
X23502Y33400D01*
X23802D01*
X23952Y33250D01*
Y33100D01*
X23352D01*
X24402Y33400D02*
X24702D01*
X24852Y33250D01*
Y32800D01*
X24402D01*
X24252Y32950D01*
X24402Y33100D01*
X24852D01*
X25152Y32800D02*
X25601D01*
X25751Y32950D01*
X25601Y33100D01*
X25301D01*
X25152Y33250D01*
X25301Y33400D01*
X25751D01*
X26501Y32800D02*
X26201D01*
X26051Y32950D01*
Y33250D01*
X26201Y33400D01*
X26501D01*
X26651Y33250D01*
Y33100D01*
X26051D01*
X28151Y32500D02*
X28301D01*
X28450Y32650D01*
Y33400D01*
X28001D01*
X27851Y33250D01*
Y32950D01*
X28001Y32800D01*
X28450D01*
X28750D02*
X29050D01*
X28900D01*
Y33400D01*
X28750D01*
X29500D02*
X29800Y32800D01*
X30100Y33400D01*
X30850Y32800D02*
X30550D01*
X30400Y32950D01*
Y33250D01*
X30550Y33400D01*
X30850D01*
X31000Y33250D01*
Y33100D01*
X30400D01*
X32199Y33400D02*
Y32950D01*
X32349Y32800D01*
X32799D01*
Y33400D01*
X33099Y32800D02*
X33549D01*
X33699Y32950D01*
X33549Y33100D01*
X33249D01*
X33099Y33250D01*
X33249Y33400D01*
X33699D01*
X35048D02*
X35348D01*
X35498Y33250D01*
Y32800D01*
X35048D01*
X34898Y32950D01*
X35048Y33100D01*
X35498D01*
X35798Y32800D02*
Y33400D01*
X36248D01*
X36398Y33250D01*
Y32800D01*
X37598D02*
Y33400D01*
X37897Y33700D01*
X38197Y33400D01*
Y32800D01*
Y33250D01*
X37598D01*
M02*
