G04*
G04 #@! TF.GenerationSoftware,Altium Limited,Altium Designer,22.4.2 (48)*
G04*
G04 Layer_Color=16711935*
%FSLAX24Y24*%
%MOIN*%
G70*
G04*
G04 #@! TF.SameCoordinates,94B06879-D93D-4629-8478-E99B9EA78D0E*
G04*
G04*
G04 #@! TF.FilePolarity,Positive*
G04*
G01*
G75*
%ADD13C,0.0079*%
%ADD73C,0.0039*%
D13*
X34848Y18730D02*
Y19770D01*
X32652D02*
X34848D01*
X32652Y18730D02*
Y19770D01*
Y18730D02*
X34848D01*
X16781Y9769D02*
Y12131D01*
X14419D02*
X16781D01*
X14419Y9769D02*
Y12131D01*
Y9769D02*
X16781D01*
X39369Y59946D02*
Y60654D01*
X38031D02*
X39369D01*
X38031Y59946D02*
Y60654D01*
Y59946D02*
X39369D01*
X37233Y60024D02*
Y60576D01*
X36367D02*
X37233D01*
X36367Y60024D02*
Y60576D01*
Y60024D02*
X37233D01*
X26174Y45125D02*
X27226D01*
Y60275D01*
X26174D02*
X27226D01*
X26174Y45125D02*
Y60275D01*
X32174Y45125D02*
X33226D01*
Y60275D01*
X32174D02*
X33226D01*
X32174Y45125D02*
Y60275D01*
X9524Y45767D02*
X10076D01*
Y46633D01*
X9524D02*
X10076D01*
X9524Y45767D02*
Y46633D01*
X9474Y14767D02*
X10026D01*
Y15633D01*
X9474D02*
X10026D01*
X9474Y14767D02*
Y15633D01*
X50424Y31083D02*
X50976D01*
X50424Y30217D02*
Y31083D01*
Y30217D02*
X50976D01*
Y31083D01*
X50324Y18633D02*
X50876D01*
X50324Y17767D02*
Y18633D01*
Y17767D02*
X50876D01*
Y18633D01*
X50224Y51283D02*
X50776D01*
X50224Y50417D02*
Y51283D01*
Y50417D02*
X50776D01*
Y51283D01*
X9624Y27933D02*
X10176D01*
X9624Y27067D02*
Y27933D01*
Y27067D02*
X10176D01*
Y27933D01*
X25333Y9174D02*
Y9726D01*
X24467D02*
X25333D01*
X24467Y9174D02*
Y9726D01*
Y9174D02*
X25333D01*
X50346Y33169D02*
X51054D01*
X50346Y31831D02*
Y33169D01*
Y31831D02*
X51054D01*
Y33169D01*
X27469Y9096D02*
Y9804D01*
X26131D02*
X27469D01*
X26131Y9096D02*
Y9804D01*
Y9096D02*
X27469D01*
X50246Y20769D02*
X50954D01*
X50246Y19431D02*
Y20769D01*
Y19431D02*
X50954D01*
Y20769D01*
X50146Y53369D02*
X50854D01*
X50146Y52031D02*
Y53369D01*
Y52031D02*
X50854D01*
Y53369D01*
X9446Y43681D02*
X10154D01*
Y45019D01*
X9446D02*
X10154D01*
X9446Y43681D02*
Y45019D01*
X9546Y30019D02*
X10254D01*
X9546Y28681D02*
Y30019D01*
Y28681D02*
X10254D01*
Y30019D01*
X9396Y12681D02*
X10104D01*
Y14019D01*
X9396D02*
X10104D01*
X9396Y12681D02*
Y14019D01*
X48938Y13391D02*
X50552D01*
Y16028D01*
X48938D02*
X50552D01*
X48938Y13391D02*
Y16028D01*
X37065Y47217D02*
X37635D01*
Y48083D01*
X37065D02*
X37635D01*
X37065Y47217D02*
Y48083D01*
Y48567D02*
X37635D01*
Y49433D01*
X37065D02*
X37635D01*
X37065Y48567D02*
Y49433D01*
X41217Y42950D02*
Y44150D01*
Y42950D02*
X41906D01*
Y44150D01*
X41217D02*
X41906D01*
X9300Y55500D02*
Y59300D01*
Y55500D02*
X13500D01*
Y59300D01*
X9300D02*
X13500D01*
X13900Y55564D02*
Y59364D01*
Y55564D02*
X18100D01*
Y59364D01*
X13900D02*
X18100D01*
X11883Y52265D02*
Y52835D01*
X11017D02*
X11883D01*
X11017Y52265D02*
Y52835D01*
Y52265D02*
X11883D01*
X10583D02*
Y52835D01*
X9717D02*
X10583D01*
X9717Y52265D02*
Y52835D01*
Y52265D02*
X10583D01*
X19700Y10085D02*
Y15515D01*
Y10085D02*
X23700D01*
Y15515D01*
X19700D02*
X23700D01*
X36300Y10035D02*
Y15465D01*
Y10035D02*
X40300D01*
Y15465D01*
X36300D02*
X40300D01*
X31098Y14480D02*
Y15520D01*
X28902D02*
X31098D01*
X28902Y14480D02*
Y15520D01*
Y14480D02*
X31098D01*
X47075Y23929D02*
X48115D01*
X47075Y21732D02*
Y23929D01*
Y21732D02*
X48115D01*
Y23929D01*
X42748Y9880D02*
Y10920D01*
X40552D02*
X42748D01*
X40552Y9880D02*
Y10920D01*
Y9880D02*
X42748D01*
X11880Y21552D02*
X12920D01*
Y23748D01*
X11880D02*
X12920D01*
X11880Y21552D02*
Y23748D01*
X46199Y22386D02*
X46691D01*
Y23174D01*
X46199D02*
X46691D01*
X46199Y22386D02*
Y23174D01*
X42044Y9054D02*
Y9546D01*
X41256D02*
X42044D01*
X41256Y9054D02*
Y9546D01*
Y9054D02*
X42044D01*
X13304Y22256D02*
X13796D01*
Y23044D01*
X13304D02*
X13796D01*
X13304Y22256D02*
Y23044D01*
D73*
X29449Y18750D02*
G03*
X29095Y18750I-177J0D01*
G01*
X30827D02*
G03*
X30473Y18750I-177J0D01*
G01*
X38311Y18338D02*
G03*
X38311Y17984I0J-177D01*
G01*
Y19716D02*
G03*
X38311Y19362I0J-177D01*
G01*
X21789Y19412D02*
G03*
X21789Y19766I0J177D01*
G01*
Y18034D02*
G03*
X21789Y18388I0J177D01*
G01*
X33063Y17175D02*
X33437D01*
X33063Y17825D02*
X33437D01*
X33063Y17175D02*
Y17825D01*
X33437Y17175D02*
Y17825D01*
X33063Y16075D02*
X33437D01*
X33063Y16725D02*
X33437D01*
X33063Y16075D02*
Y16725D01*
X33437Y16075D02*
Y16725D01*
X34535Y15943D02*
Y16809D01*
X33965Y15943D02*
Y16809D01*
X34535D01*
X33965Y15943D02*
X34535D01*
Y17067D02*
Y17933D01*
X33965Y17067D02*
Y17933D01*
X34535D01*
X33965Y17067D02*
X34535D01*
X26963Y17525D02*
X27337D01*
X26963Y18175D02*
X27337D01*
X26963Y17525D02*
Y18175D01*
X27337Y17525D02*
Y18175D01*
X26963Y16431D02*
X27337D01*
X26963Y17081D02*
X27337D01*
X26963Y16431D02*
Y17081D01*
X27337Y16431D02*
Y17081D01*
X26435Y16293D02*
Y17159D01*
X25865Y16293D02*
Y17159D01*
X26435D01*
X25865Y16293D02*
X26435D01*
X25865Y17417D02*
Y18283D01*
X26435Y17417D02*
Y18283D01*
X25865Y17417D02*
X26435D01*
X25865Y18283D02*
X26435D01*
X29016Y17333D02*
X29093Y18750D01*
X29451D02*
X29528Y17333D01*
X30829Y18750D02*
X30906Y17333D01*
X30394D02*
X30471Y18750D01*
X28386Y18128D02*
X28584Y18101D01*
X28583Y18100D02*
Y20089D01*
X28386Y17814D02*
X28583Y17845D01*
X28386Y17814D02*
Y18128D01*
X31339Y17333D02*
Y19656D01*
Y19833D02*
Y20089D01*
X28583Y17333D02*
X31339D01*
X28583D02*
Y17845D01*
Y20089D02*
X31339D01*
X31536Y19636D02*
Y19852D01*
X31339Y19833D02*
X31536Y19852D01*
X31339Y19656D02*
X31536Y19636D01*
X17765Y11383D02*
X18335D01*
X17765Y10517D02*
X18335D01*
Y11383D01*
X17765Y10517D02*
Y11383D01*
X47450Y58575D02*
X48450D01*
Y54425D02*
Y58575D01*
X47450Y54425D02*
X48450D01*
X47450D02*
Y58575D01*
X32025Y12000D02*
Y13000D01*
X27875Y12000D02*
X32025D01*
X27875D02*
Y13000D01*
X32025D01*
X43250Y45375D02*
X44250D01*
X43250D02*
Y49525D01*
X44250D01*
Y45375D02*
Y49525D01*
X40250Y45375D02*
X41250D01*
X40250D02*
Y49525D01*
X41250D01*
Y45375D02*
Y49525D01*
X45351Y42665D02*
Y43235D01*
X46217Y42665D02*
Y43235D01*
X45351D02*
X46217D01*
X45351Y42665D02*
X46217D01*
X45328Y43445D02*
X46272D01*
X45328Y44055D02*
X46272D01*
Y43445D02*
Y44055D01*
X45328Y43445D02*
Y44055D01*
X43733Y42415D02*
Y42985D01*
X42867Y42415D02*
Y42985D01*
Y42415D02*
X43733D01*
X42867Y42985D02*
X43733D01*
Y41415D02*
Y41985D01*
X42867Y41415D02*
Y41985D01*
Y41415D02*
X43733D01*
X42867Y41985D02*
X43733D01*
X41167Y40965D02*
Y41535D01*
X42033Y40965D02*
Y41535D01*
X41167D02*
X42033D01*
X41167Y40965D02*
X42033D01*
X42183Y44465D02*
Y45035D01*
X41317Y44465D02*
Y45035D01*
Y44465D02*
X42183D01*
X41317Y45035D02*
X42183D01*
X36165Y47217D02*
X36735D01*
X36165Y48083D02*
X36735D01*
X36165Y47217D02*
Y48083D01*
X36735Y47217D02*
Y48083D01*
X44667Y46615D02*
Y47185D01*
X45533Y46615D02*
Y47185D01*
X44667D02*
X45533D01*
X44667Y46615D02*
X45533D01*
X48083Y47665D02*
Y48235D01*
X47217Y47665D02*
Y48235D01*
Y47665D02*
X48083D01*
X47217Y48235D02*
X48083D01*
X44667Y47665D02*
Y48235D01*
X45533Y47665D02*
Y48235D01*
X44667D02*
X45533D01*
X44667Y47665D02*
X45533D01*
X36165Y49433D02*
X36735D01*
X36165Y48567D02*
X36735D01*
Y49433D01*
X36165Y48567D02*
Y49433D01*
X44867Y48715D02*
Y49285D01*
X45733Y48715D02*
Y49285D01*
X44867D02*
X45733D01*
X44867Y48715D02*
X45733D01*
X46233Y44315D02*
Y44885D01*
X45367Y44315D02*
Y44885D01*
Y44315D02*
X46233D01*
X45367Y44885D02*
X46233D01*
X48083Y49315D02*
Y49885D01*
X47217Y49315D02*
Y49885D01*
Y49315D02*
X48083D01*
X47217Y49885D02*
X48083D01*
X44867Y49665D02*
Y50235D01*
X45733Y49665D02*
Y50235D01*
X44867D02*
X45733D01*
X44867Y49665D02*
X45733D01*
X38972Y48665D02*
Y49235D01*
X39839Y48665D02*
Y49235D01*
X38972D02*
X39839D01*
X38972Y48665D02*
X39839D01*
X47178Y48445D02*
X48122D01*
X47178Y49055D02*
X48122D01*
Y48445D02*
Y49055D01*
X47178Y48445D02*
Y49055D01*
X42867Y43465D02*
Y44035D01*
X43733Y43465D02*
Y44035D01*
X42867D02*
X43733D01*
X42867Y43465D02*
X43733D01*
Y44315D02*
Y44885D01*
X42867Y44315D02*
Y44885D01*
Y44315D02*
X43733D01*
X42867Y44885D02*
X43733D01*
X44667Y45665D02*
Y46235D01*
X45533Y45665D02*
Y46235D01*
X44667D02*
X45533D01*
X44667Y45665D02*
X45533D01*
X38967Y47665D02*
Y48235D01*
X39833Y47665D02*
Y48235D01*
X38967D02*
X39833D01*
X38967Y47665D02*
X39833D01*
X38767Y44665D02*
Y45235D01*
X39633Y44665D02*
Y45235D01*
X38767D02*
X39633D01*
X38767Y44665D02*
X39633D01*
X38767Y45565D02*
Y46135D01*
X39633Y45565D02*
Y46135D01*
X38767D02*
X39633D01*
X38767Y45565D02*
X39633D01*
X38967Y46665D02*
Y47235D01*
X39833Y46665D02*
Y47235D01*
X38967D02*
X39833D01*
X38967Y46665D02*
X39833D01*
X42033Y41815D02*
Y42385D01*
X41167Y41815D02*
Y42385D01*
Y41815D02*
X42033D01*
X41167Y42385D02*
X42033D01*
X12367Y52265D02*
Y52835D01*
X13233Y52265D02*
Y52835D01*
X12367D02*
X13233D01*
X12367Y52265D02*
X13233D01*
X38311Y17982D02*
X39728Y17905D01*
X38311Y18340D02*
X39728Y18417D01*
X38311Y19718D02*
X39728Y19795D01*
X38311Y19360D02*
X39728Y19283D01*
X38933Y17275D02*
X38960Y17473D01*
X36972Y17472D02*
X38960D01*
X39216D02*
X39247Y17275D01*
X38933D02*
X39247D01*
X37405Y20228D02*
X39728D01*
X36972D02*
X37228D01*
X39728Y17472D02*
Y20228D01*
X39216Y17472D02*
X39728D01*
X36972D02*
Y20228D01*
X37208Y20425D02*
X37425D01*
X37209Y20425D02*
X37228Y20228D01*
X37405D02*
X37424Y20425D01*
X20372Y19845D02*
X21789Y19768D01*
X20372Y19333D02*
X21789Y19410D01*
X20372Y17955D02*
X21789Y18032D01*
X20372Y18467D02*
X21789Y18390D01*
X21140Y20277D02*
X21167Y20475D01*
X21140Y20278D02*
X23128D01*
X20853Y20475D02*
X20884Y20278D01*
X20853Y20475D02*
X21167D01*
X20372Y17522D02*
X22695D01*
X22872D02*
X23128D01*
X20372D02*
Y20278D01*
X20884D01*
X23128Y17522D02*
Y20278D01*
X22675Y17325D02*
X22892D01*
X22872Y17522D02*
X22891Y17325D01*
X22676D02*
X22695Y17522D01*
X33700Y56125D02*
X34700D01*
X33700D02*
Y60275D01*
X34700D01*
Y56125D02*
Y60275D01*
X11550Y32875D02*
X12550D01*
X11550D02*
Y37025D01*
X12550D01*
Y32875D02*
Y37025D01*
X47450Y36975D02*
X48450D01*
Y32825D02*
Y36975D01*
X47450Y32825D02*
X48450D01*
X47450D02*
Y36975D01*
X48450Y9200D02*
Y12200D01*
X49450Y9200D02*
Y12200D01*
X48450Y9200D02*
X49450D01*
X48450Y12200D02*
X49450D01*
X24600Y57200D02*
Y60200D01*
X25600Y57200D02*
Y60200D01*
X24600Y57200D02*
X25600D01*
X24600Y60200D02*
X25600D01*
M02*
