G04*
G04 #@! TF.GenerationSoftware,Altium Limited,Altium Designer,22.4.2 (48)*
G04*
G04 Layer_Color=0*
%FSLAX24Y24*%
%MOIN*%
G70*
G04*
G04 #@! TF.SameCoordinates,94B06879-D93D-4629-8478-E99B9EA78D0E*
G04*
G04*
G04 #@! TF.FilePolarity,Positive*
G04*
G01*
G75*
%ADD73C,0.0039*%
D73*
X33750Y19053D02*
Y19447D01*
X33553Y19250D02*
X33947D01*
X15234Y10950D02*
X15966D01*
X15600Y10584D02*
Y11316D01*
X38700Y60103D02*
Y60497D01*
X38503Y60300D02*
X38897D01*
X36800Y60103D02*
Y60497D01*
X36603Y60300D02*
X36997D01*
X26503Y52700D02*
X26897D01*
X26700Y52503D02*
Y52897D01*
X32503Y52700D02*
X32897D01*
X32700Y52503D02*
Y52897D01*
X9603Y46200D02*
X9997D01*
X9800Y46003D02*
Y46397D01*
X9553Y15200D02*
X9947D01*
X9750Y15003D02*
Y15397D01*
X50503Y30650D02*
X50897D01*
X50700Y30453D02*
Y30847D01*
X50403Y18200D02*
X50797D01*
X50600Y18003D02*
Y18397D01*
X50303Y50850D02*
X50697D01*
X50500Y50653D02*
Y51047D01*
X9703Y27500D02*
X10097D01*
X9900Y27303D02*
Y27697D01*
X24900Y9253D02*
Y9647D01*
X24703Y9450D02*
X25097D01*
X50503Y32500D02*
X50897D01*
X50700Y32303D02*
Y32697D01*
X26800Y9253D02*
Y9647D01*
X26603Y9450D02*
X26997D01*
X50403Y20100D02*
X50797D01*
X50600Y19903D02*
Y20297D01*
X50303Y52700D02*
X50697D01*
X50500Y52503D02*
Y52897D01*
X9603Y44350D02*
X9997D01*
X9800Y44153D02*
Y44547D01*
X9703Y29350D02*
X10097D01*
X9900Y29153D02*
Y29547D01*
X9553Y13350D02*
X9947D01*
X9750Y13153D02*
Y13547D01*
X49420Y14709D02*
X50070D01*
X49745Y14385D02*
Y15034D01*
X37153Y47650D02*
X37547D01*
X37350Y47453D02*
Y47847D01*
X37153Y49000D02*
X37547D01*
X37350Y48803D02*
Y49197D01*
X41562Y43353D02*
Y43747D01*
X41365Y43550D02*
X41759D01*
X11400Y57203D02*
Y57597D01*
X11203Y57400D02*
X11597D01*
X16000Y57267D02*
Y57661D01*
X15803Y57464D02*
X16197D01*
X11450Y52353D02*
Y52747D01*
X11253Y52550D02*
X11647D01*
X10150Y52353D02*
Y52747D01*
X9953Y52550D02*
X10347D01*
X21700Y12603D02*
Y12997D01*
X21503Y12800D02*
X21897D01*
X38300Y12553D02*
Y12947D01*
X38103Y12750D02*
X38497D01*
X30000Y14803D02*
Y15197D01*
X29803Y15000D02*
X30197D01*
X47398Y22830D02*
X47792D01*
X47595Y22633D02*
Y23027D01*
X41650Y10203D02*
Y10597D01*
X41453Y10400D02*
X41847D01*
X12203Y22650D02*
X12597D01*
X12400Y22453D02*
Y22847D01*
X46248Y22780D02*
X46642D01*
X46445Y22583D02*
Y22977D01*
X41650Y9103D02*
Y9497D01*
X41453Y9300D02*
X41847D01*
X13353Y22650D02*
X13747D01*
X13550Y22453D02*
Y22847D01*
M02*
