G04*
G04 #@! TF.GenerationSoftware,Altium Limited,Altium Designer,22.4.2 (48)*
G04*
G04 Layer_Color=16711935*
%FSLAX24Y24*%
%MOIN*%
G70*
G04*
G04 #@! TF.SameCoordinates,ED83B53D-03BE-4A71-8F10-75A6417481AF*
G04*
G04*
G04 #@! TF.FilePolarity,Positive*
G04*
G01*
G75*
%ADD13C,0.0079*%
%ADD14C,0.0050*%
D13*
X39822Y59906D02*
Y60694D01*
X37578D02*
X39822D01*
X37578Y59906D02*
Y60694D01*
Y59906D02*
X39822D01*
X37410Y59975D02*
Y60625D01*
X36190D02*
X37410D01*
X36190Y59975D02*
Y60625D01*
Y59975D02*
X37410D01*
X26135Y45086D02*
X27265D01*
Y60314D01*
X26135D02*
X27265D01*
X26135Y45086D02*
Y60314D01*
X32135Y45086D02*
X33265D01*
Y60314D01*
X32135D02*
X33265D01*
X32135Y45086D02*
Y60314D01*
X9475Y45590D02*
X10125D01*
Y46810D01*
X9475D02*
X10125D01*
X9475Y45590D02*
Y46810D01*
X9425Y14590D02*
X10075D01*
Y15810D01*
X9425D02*
X10075D01*
X9425Y14590D02*
Y15810D01*
X50375Y31260D02*
X51025D01*
X50375Y30040D02*
Y31260D01*
Y30040D02*
X51025D01*
Y31260D01*
X50275Y18810D02*
X50925D01*
X50275Y17590D02*
Y18810D01*
Y17590D02*
X50925D01*
Y18810D01*
X50175Y51460D02*
X50825D01*
X50175Y50240D02*
Y51460D01*
Y50240D02*
X50825D01*
Y51460D01*
X9575Y28110D02*
X10225D01*
X9575Y26890D02*
Y28110D01*
Y26890D02*
X10225D01*
Y28110D01*
X25510Y9125D02*
Y9775D01*
X24290D02*
X25510D01*
X24290Y9125D02*
Y9775D01*
Y9125D02*
X25510D01*
X50306Y33622D02*
X51094D01*
X50306Y31378D02*
Y33622D01*
Y31378D02*
X51094D01*
Y33622D01*
X27922Y9056D02*
Y9844D01*
X25678D02*
X27922D01*
X25678Y9056D02*
Y9844D01*
Y9056D02*
X27922D01*
X50206Y21222D02*
X50994D01*
X50206Y18978D02*
Y21222D01*
Y18978D02*
X50994D01*
Y21222D01*
X50106Y53822D02*
X50894D01*
X50106Y51578D02*
Y53822D01*
Y51578D02*
X50894D01*
Y53822D01*
X9406Y43228D02*
X10194D01*
Y45472D01*
X9406D02*
X10194D01*
X9406Y43228D02*
Y45472D01*
X9506Y30472D02*
X10294D01*
X9506Y28228D02*
Y30472D01*
Y28228D02*
X10294D01*
Y30472D01*
X9356Y12228D02*
X10144D01*
Y14472D01*
X9356D02*
X10144D01*
X9356Y12228D02*
Y14472D01*
X48426Y13036D02*
X50592D01*
Y16383D01*
X48426D02*
X50592D01*
X48426Y13036D02*
Y16383D01*
X37015Y47099D02*
X37685D01*
Y48201D01*
X37015D02*
X37685D01*
X37015Y47099D02*
Y48201D01*
Y48449D02*
X37685D01*
Y49551D01*
X37015D02*
X37685D01*
X37015Y48449D02*
Y49551D01*
X40794Y42851D02*
Y44249D01*
Y42851D02*
X42330D01*
Y44249D01*
X40794D02*
X42330D01*
X9254Y53423D02*
Y60037D01*
Y53423D02*
X13546D01*
Y60037D01*
X9254D02*
X13546D01*
X13711Y53361D02*
Y60439D01*
Y53361D02*
X18289D01*
Y60439D01*
X13711D02*
X18289D01*
X12001Y52215D02*
Y52885D01*
X10899D02*
X12001D01*
X10899Y52215D02*
Y52885D01*
Y52215D02*
X12001D01*
X10701D02*
Y52885D01*
X9599D02*
X10701D01*
X9599Y52215D02*
Y52885D01*
Y52215D02*
X10701D01*
X28630Y31041D02*
X31070D01*
Y34859D01*
X28630D02*
X31070D01*
X28630Y31041D02*
Y34859D01*
X19661Y10046D02*
Y15564D01*
Y10046D02*
X23739D01*
Y15564D01*
X19661D02*
X23739D01*
X36261Y9996D02*
Y15514D01*
Y9996D02*
X40339D01*
Y15514D01*
X36261D02*
X40339D01*
X31138Y14441D02*
Y15559D01*
X28862D02*
X31138D01*
X28862Y14441D02*
Y15559D01*
Y14441D02*
X31138D01*
X47036Y23968D02*
X48154D01*
X47036Y21692D02*
Y23968D01*
Y21692D02*
X48154D01*
Y23968D01*
X42788Y9841D02*
Y10959D01*
X40512D02*
X42788D01*
X40512Y9841D02*
Y10959D01*
Y9841D02*
X42788D01*
X11841Y21512D02*
X12959D01*
Y23788D01*
X11841D02*
X12959D01*
X11841Y21512D02*
Y23788D01*
X46069Y22109D02*
X46821D01*
Y23451D01*
X46069D02*
X46821D01*
X46069Y22109D02*
Y23451D01*
X42321Y8924D02*
Y9676D01*
X40979D02*
X42321D01*
X40979Y8924D02*
Y9676D01*
Y8924D02*
X42321D01*
X13174Y21979D02*
X13926D01*
Y23321D01*
X13174D02*
X13926D01*
X13174Y21979D02*
Y23321D01*
D14*
X9950Y27450D02*
X10250D01*
Y27300D01*
X10200Y27250D01*
X10100D01*
X10050Y27300D01*
Y27450D01*
Y27350D02*
X9950Y27250D01*
X10200Y27150D02*
X10250Y27100D01*
Y27000D01*
X10200Y26950D01*
X10150D01*
X10100Y27000D01*
Y27050D01*
Y27000D01*
X10050Y26950D01*
X10000D01*
X9950Y27000D01*
Y27100D01*
X10000Y27150D01*
X10200Y26850D02*
X10250Y26800D01*
Y26700D01*
X10200Y26650D01*
X10000D01*
X9950Y26700D01*
Y26800D01*
X10000Y26850D01*
X10200D01*
X38650Y60024D02*
Y60324D01*
X38500D01*
X38450Y60274D01*
Y60074D01*
X38500Y60024D01*
X38650D01*
X38150D02*
X38250Y60074D01*
X38350Y60174D01*
Y60274D01*
X38300Y60324D01*
X38200D01*
X38150Y60274D01*
Y60224D01*
X38200Y60174D01*
X38350D01*
X36750Y60250D02*
Y59950D01*
X36600D01*
X36550Y60000D01*
Y60100D01*
X36600Y60150D01*
X36750D01*
X36650D02*
X36550Y60250D01*
X36450Y60000D02*
X36400Y59950D01*
X36300D01*
X36250Y60000D01*
Y60050D01*
X36300Y60100D01*
X36350D01*
X36300D01*
X36250Y60150D01*
Y60200D01*
X36300Y60250D01*
X36400D01*
X36450Y60200D01*
X36000Y60250D02*
Y59950D01*
X36150Y60100D01*
X35950D01*
X26350Y52750D02*
X26600D01*
X26650Y52800D01*
Y52900D01*
X26600Y52950D01*
X26350D01*
X26650Y53050D02*
Y53150D01*
Y53100D01*
X26350D01*
X26400Y53050D01*
X32350Y52750D02*
X32600D01*
X32650Y52800D01*
Y52900D01*
X32600Y52950D01*
X32350D01*
X32650Y53050D02*
Y53150D01*
Y53100D01*
X32350D01*
X32400Y53050D01*
X9750Y46250D02*
X9450D01*
Y46400D01*
X9500Y46450D01*
X9600D01*
X9650Y46400D01*
Y46250D01*
Y46350D02*
X9750Y46450D01*
Y46750D02*
Y46550D01*
X9550Y46750D01*
X9500D01*
X9450Y46700D01*
Y46600D01*
X9500Y46550D01*
X9700Y46850D02*
X9750Y46900D01*
Y47000D01*
X9700Y47050D01*
X9500D01*
X9450Y47000D01*
Y46900D01*
X9500Y46850D01*
X9550D01*
X9600Y46900D01*
Y47050D01*
X9700Y15250D02*
X9400D01*
Y15400D01*
X9450Y15450D01*
X9550D01*
X9600Y15400D01*
Y15250D01*
Y15350D02*
X9700Y15450D01*
X9450Y15550D02*
X9400Y15600D01*
Y15700D01*
X9450Y15750D01*
X9500D01*
X9550Y15700D01*
Y15650D01*
Y15700D01*
X9600Y15750D01*
X9650D01*
X9700Y15700D01*
Y15600D01*
X9650Y15550D01*
X9700Y15850D02*
Y15950D01*
Y15900D01*
X9400D01*
X9450Y15850D01*
X50750Y30600D02*
X51050D01*
Y30450D01*
X51000Y30400D01*
X50900D01*
X50850Y30450D01*
Y30600D01*
Y30500D02*
X50750Y30400D01*
X51000Y30300D02*
X51050Y30250D01*
Y30150D01*
X51000Y30100D01*
X50950D01*
X50900Y30150D01*
Y30200D01*
Y30150D01*
X50850Y30100D01*
X50800D01*
X50750Y30150D01*
Y30250D01*
X50800Y30300D01*
X51000Y30000D02*
X51050Y29950D01*
Y29850D01*
X51000Y29800D01*
X50950D01*
X50900Y29850D01*
Y29900D01*
Y29850D01*
X50850Y29800D01*
X50800D01*
X50750Y29850D01*
Y29950D01*
X50800Y30000D01*
X50650Y18150D02*
X50950D01*
Y18000D01*
X50900Y17950D01*
X50800D01*
X50750Y18000D01*
Y18150D01*
Y18050D02*
X50650Y17950D01*
X50900Y17850D02*
X50950Y17800D01*
Y17700D01*
X50900Y17650D01*
X50850D01*
X50800Y17700D01*
Y17750D01*
Y17700D01*
X50750Y17650D01*
X50700D01*
X50650Y17700D01*
Y17800D01*
X50700Y17850D01*
X50950Y17350D02*
Y17550D01*
X50800D01*
X50850Y17450D01*
Y17400D01*
X50800Y17350D01*
X50700D01*
X50650Y17400D01*
Y17500D01*
X50700Y17550D01*
X50550Y50800D02*
X50850D01*
Y50650D01*
X50800Y50600D01*
X50700D01*
X50650Y50650D01*
Y50800D01*
Y50700D02*
X50550Y50600D01*
X50800Y50500D02*
X50850Y50450D01*
Y50350D01*
X50800Y50300D01*
X50750D01*
X50700Y50350D01*
Y50400D01*
Y50350D01*
X50650Y50300D01*
X50600D01*
X50550Y50350D01*
Y50450D01*
X50600Y50500D01*
X50550Y50000D02*
Y50200D01*
X50750Y50000D01*
X50800D01*
X50850Y50050D01*
Y50150D01*
X50800Y50200D01*
X24850Y9400D02*
Y9100D01*
X24700D01*
X24650Y9150D01*
Y9250D01*
X24700Y9300D01*
X24850D01*
X24750D02*
X24650Y9400D01*
X24550Y9150D02*
X24500Y9100D01*
X24400D01*
X24350Y9150D01*
Y9200D01*
X24400Y9250D01*
X24450D01*
X24400D01*
X24350Y9300D01*
Y9350D01*
X24400Y9400D01*
X24500D01*
X24550Y9350D01*
X24050Y9100D02*
X24150Y9150D01*
X24250Y9250D01*
Y9350D01*
X24200Y9400D01*
X24100D01*
X24050Y9350D01*
Y9300D01*
X24100Y9250D01*
X24250D01*
X50976Y32450D02*
X50676D01*
Y32300D01*
X50726Y32250D01*
X50926D01*
X50976Y32300D01*
Y32450D01*
Y31950D02*
Y32150D01*
X50826D01*
X50876Y32050D01*
Y32000D01*
X50826Y31950D01*
X50726D01*
X50676Y32000D01*
Y32100D01*
X50726Y32150D01*
X26750Y9174D02*
Y9474D01*
X26600D01*
X26550Y9424D01*
Y9224D01*
X26600Y9174D01*
X26750D01*
X26450Y9224D02*
X26400Y9174D01*
X26300D01*
X26250Y9224D01*
Y9274D01*
X26300Y9324D01*
X26250Y9374D01*
Y9424D01*
X26300Y9474D01*
X26400D01*
X26450Y9424D01*
Y9374D01*
X26400Y9324D01*
X26450Y9274D01*
Y9224D01*
X26400Y9324D02*
X26300D01*
X50876Y20050D02*
X50576D01*
Y19900D01*
X50626Y19850D01*
X50826D01*
X50876Y19900D01*
Y20050D01*
Y19750D02*
Y19550D01*
X50826D01*
X50626Y19750D01*
X50576D01*
X50776Y52650D02*
X50476D01*
Y52500D01*
X50526Y52450D01*
X50726D01*
X50776Y52500D01*
Y52650D01*
X50476Y52200D02*
X50776D01*
X50626Y52350D01*
Y52150D01*
X9524Y44400D02*
X9824D01*
Y44550D01*
X9774Y44600D01*
X9574D01*
X9524Y44550D01*
Y44400D01*
X9824Y44700D02*
Y44800D01*
Y44750D01*
X9524D01*
X9574Y44700D01*
X10176Y29300D02*
X9876D01*
Y29150D01*
X9926Y29100D01*
X10126D01*
X10176Y29150D01*
Y29300D01*
X9876Y28800D02*
Y29000D01*
X10076Y28800D01*
X10126D01*
X10176Y28850D01*
Y28950D01*
X10126Y29000D01*
X9474Y13400D02*
X9774D01*
Y13550D01*
X9724Y13600D01*
X9524D01*
X9474Y13550D01*
Y13400D01*
X9524Y13700D02*
X9474Y13750D01*
Y13850D01*
X9524Y13900D01*
X9574D01*
X9624Y13850D01*
Y13800D01*
Y13850D01*
X9674Y13900D01*
X9724D01*
X9774Y13850D01*
Y13750D01*
X9724Y13700D01*
X49209Y14959D02*
X49159Y14909D01*
Y14809D01*
X49209Y14759D01*
X49259D01*
X49309Y14809D01*
Y14909D01*
X49359Y14959D01*
X49409D01*
X49459Y14909D01*
Y14809D01*
X49409Y14759D01*
X49159Y15059D02*
X49459D01*
X49359Y15159D01*
X49459Y15259D01*
X49159D01*
X49459Y15559D02*
Y15359D01*
X49259Y15559D01*
X49209D01*
X49159Y15509D01*
Y15409D01*
X49209Y15359D01*
X37050Y47900D02*
X37000Y47850D01*
Y47750D01*
X37050Y47700D01*
X37250D01*
X37300Y47750D01*
Y47850D01*
X37250Y47900D01*
X37300Y48200D02*
Y48000D01*
X37100Y48200D01*
X37050D01*
X37000Y48150D01*
Y48050D01*
X37050Y48000D01*
Y49250D02*
X37000Y49200D01*
Y49100D01*
X37050Y49050D01*
X37250D01*
X37300Y49100D01*
Y49200D01*
X37250Y49250D01*
X37300Y49350D02*
Y49450D01*
Y49400D01*
X37000D01*
X37050Y49350D01*
X41612Y43826D02*
Y43576D01*
X41662Y43526D01*
X41762D01*
X41812Y43576D01*
Y43826D01*
X41912Y43776D02*
X41962Y43826D01*
X42062D01*
X42112Y43776D01*
Y43726D01*
X42062Y43676D01*
X42012D01*
X42062D01*
X42112Y43626D01*
Y43576D01*
X42062Y43526D01*
X41962D01*
X41912Y43576D01*
X11450Y57006D02*
Y56756D01*
X11500Y56706D01*
X11600D01*
X11650Y56756D01*
Y57006D01*
X11900Y56706D02*
Y57006D01*
X11750Y56856D01*
X11950D01*
X16250Y56926D02*
Y57126D01*
X16200Y57176D01*
X16100D01*
X16050Y57126D01*
Y56926D01*
X16100Y56876D01*
X16200D01*
X16150Y56976D02*
X16250Y56876D01*
X16200D02*
X16250Y56926D01*
X16350Y56876D02*
X16450D01*
X16400D01*
Y57176D01*
X16350Y57126D01*
X11200Y52250D02*
X11250Y52200D01*
X11350D01*
X11400Y52250D01*
Y52450D01*
X11350Y52500D01*
X11250D01*
X11200Y52450D01*
X10900Y52200D02*
X11000Y52250D01*
X11100Y52350D01*
Y52450D01*
X11050Y52500D01*
X10950D01*
X10900Y52450D01*
Y52400D01*
X10950Y52350D01*
X11100D01*
X9900Y52250D02*
X9950Y52200D01*
X10050D01*
X10100Y52250D01*
Y52450D01*
X10050Y52500D01*
X9950D01*
X9900Y52450D01*
X9600Y52200D02*
X9800D01*
Y52350D01*
X9700Y52300D01*
X9650D01*
X9600Y52350D01*
Y52450D01*
X9650Y52500D01*
X9750D01*
X9800Y52450D01*
X29550Y33200D02*
X29500Y33150D01*
Y33050D01*
X29550Y33000D01*
X29600D01*
X29650Y33050D01*
Y33150D01*
X29700Y33200D01*
X29750D01*
X29800Y33150D01*
Y33050D01*
X29750Y33000D01*
X29500Y33300D02*
X29800D01*
X29700Y33400D01*
X29800Y33500D01*
X29500D01*
X29800Y33600D02*
Y33700D01*
Y33650D01*
X29500D01*
X29550Y33600D01*
X21950Y13155D02*
X21850D01*
X21900D01*
Y12905D01*
X21850Y12855D01*
X21800D01*
X21750Y12905D01*
X22200Y12855D02*
Y13155D01*
X22050Y13005D01*
X22250D01*
X38550Y13105D02*
X38450D01*
X38500D01*
Y12855D01*
X38450Y12805D01*
X38400D01*
X38350Y12855D01*
X38650Y13055D02*
X38700Y13105D01*
X38800D01*
X38850Y13055D01*
Y13005D01*
X38800Y12955D01*
X38750D01*
X38800D01*
X38850Y12905D01*
Y12855D01*
X38800Y12805D01*
X38700D01*
X38650Y12855D01*
X29750Y14650D02*
X29850D01*
X29800D01*
Y14900D01*
X29850Y14950D01*
X29900D01*
X29950Y14900D01*
X29450Y14650D02*
X29650D01*
Y14800D01*
X29550Y14750D01*
X29500D01*
X29450Y14800D01*
Y14900D01*
X29500Y14950D01*
X29600D01*
X29650Y14900D01*
X47945Y22580D02*
Y22680D01*
Y22630D01*
X47695D01*
X47645Y22680D01*
Y22730D01*
X47695Y22780D01*
X47895Y22480D02*
X47945Y22430D01*
Y22330D01*
X47895Y22280D01*
X47845D01*
X47795Y22330D01*
X47745Y22280D01*
X47695D01*
X47645Y22330D01*
Y22430D01*
X47695Y22480D01*
X47745D01*
X47795Y22430D01*
X47845Y22480D01*
X47895D01*
X47795Y22430D02*
Y22330D01*
X41400Y10050D02*
X41500D01*
X41450D01*
Y10300D01*
X41500Y10350D01*
X41550D01*
X41600Y10300D01*
X41300Y10050D02*
X41100D01*
Y10100D01*
X41300Y10300D01*
Y10350D01*
X12050Y22900D02*
Y22800D01*
Y22850D01*
X12300D01*
X12350Y22800D01*
Y22750D01*
X12300Y22700D01*
X12050Y23200D02*
X12100Y23100D01*
X12200Y23000D01*
X12300D01*
X12350Y23050D01*
Y23150D01*
X12300Y23200D01*
X12250D01*
X12200Y23150D01*
Y23000D01*
X46395Y22830D02*
X46095D01*
Y22980D01*
X46145Y23030D01*
X46245D01*
X46295Y22980D01*
Y22830D01*
Y22930D02*
X46395Y23030D01*
Y23280D02*
X46095D01*
X46245Y23130D01*
Y23330D01*
X41600Y9250D02*
Y8950D01*
X41450D01*
X41400Y9000D01*
Y9100D01*
X41450Y9150D01*
X41600D01*
X41500D02*
X41400Y9250D01*
X41300Y9000D02*
X41250Y8950D01*
X41150D01*
X41100Y9000D01*
Y9050D01*
X41150Y9100D01*
X41200D01*
X41150D01*
X41100Y9150D01*
Y9200D01*
X41150Y9250D01*
X41250D01*
X41300Y9200D01*
X13500Y22700D02*
X13200D01*
Y22850D01*
X13250Y22900D01*
X13350D01*
X13400Y22850D01*
Y22700D01*
Y22800D02*
X13500Y22900D01*
Y23200D02*
Y23000D01*
X13300Y23200D01*
X13250D01*
X13200Y23150D01*
Y23050D01*
X13250Y23000D01*
M02*
