G04*
G04 #@! TF.GenerationSoftware,Altium Limited,Altium Designer,22.4.2 (48)*
G04*
G04 Layer_Color=255*
%FSLAX24Y24*%
%MOIN*%
G70*
G04*
G04 #@! TF.SameCoordinates,ED83B53D-03BE-4A71-8F10-75A6417481AF*
G04*
G04*
G04 #@! TF.FilePolarity,Positive*
G04*
G01*
G75*
%ADD18R,0.0689X0.0591*%
%ADD19R,0.0374X0.0571*%
%ADD20R,0.0571X0.0374*%
%ADD21R,0.0591X0.0689*%
%ADD22R,0.0315X0.0394*%
%ADD23R,0.0591X0.0276*%
%ADD24R,0.0531X0.0610*%
%ADD25R,0.0472X0.0571*%
%ADD26R,0.0453X0.0571*%
%ADD27R,0.0571X0.0453*%
%ADD28R,0.0531X0.0374*%
G04:AMPARAMS|DCode=29|XSize=43.3mil|YSize=23.6mil|CornerRadius=2mil|HoleSize=0mil|Usage=FLASHONLY|Rotation=0.000|XOffset=0mil|YOffset=0mil|HoleType=Round|Shape=RoundedRectangle|*
%AMROUNDEDRECTD29*
21,1,0.0433,0.0196,0,0,0.0*
21,1,0.0393,0.0236,0,0,0.0*
1,1,0.0040,0.0196,-0.0098*
1,1,0.0040,-0.0196,-0.0098*
1,1,0.0040,-0.0196,0.0098*
1,1,0.0040,0.0196,0.0098*
%
%ADD29ROUNDEDRECTD29*%
%ADD30R,0.0819X0.1500*%
%ADD31R,0.4500X0.3500*%
%ADD32R,0.0374X0.0531*%
%ADD33R,0.0413X0.0571*%
%ADD34R,0.0512X0.0610*%
%ADD35R,0.0554X0.0396*%
%ADD36R,0.0396X0.0554*%
%ADD41R,0.4213X0.3386*%
%ADD42R,0.0394X0.1339*%
%ADD44C,0.0618*%
%ADD45R,0.0618X0.0618*%
%ADD46C,0.0354*%
%ADD54R,0.0701X0.0902*%
%ADD55R,0.0618X0.0618*%
%ADD58C,0.0709*%
%ADD59R,0.0709X0.0709*%
%ADD60R,0.0610X0.0610*%
%ADD61C,0.0610*%
%ADD62R,0.0610X0.0610*%
%ADD63C,0.2250*%
%ADD64R,0.0709X0.0709*%
%ADD65R,0.0630X0.0630*%
%ADD66C,0.0630*%
D18*
X37962Y60300D02*
D03*
X39438D02*
D03*
X26062Y9450D02*
D03*
X27538D02*
D03*
D19*
X36416Y60300D02*
D03*
X37184D02*
D03*
X24516Y9450D02*
D03*
X25284D02*
D03*
D20*
X9800Y46584D02*
D03*
Y45816D02*
D03*
X9750Y15584D02*
D03*
Y14816D02*
D03*
X50700Y30266D02*
D03*
Y31034D02*
D03*
X50600Y17816D02*
D03*
Y18584D02*
D03*
X50500Y50466D02*
D03*
Y51234D02*
D03*
X9900Y27116D02*
D03*
Y27884D02*
D03*
D21*
X50700Y31762D02*
D03*
Y33238D02*
D03*
X50600Y19362D02*
D03*
Y20838D02*
D03*
X50500Y51962D02*
D03*
Y53438D02*
D03*
X9800Y45088D02*
D03*
Y43612D02*
D03*
X9900Y28612D02*
D03*
Y30088D02*
D03*
X9750Y14088D02*
D03*
Y12612D02*
D03*
D22*
X49830Y16146D02*
D03*
Y13272D02*
D03*
X49070Y16146D02*
D03*
Y13272D02*
D03*
D23*
X48761Y13824D02*
D03*
Y15595D02*
D03*
Y15005D02*
D03*
D24*
X45400Y42950D02*
D03*
X46168D02*
D03*
X46184Y44600D02*
D03*
X45416D02*
D03*
X48034Y49600D02*
D03*
X47266D02*
D03*
D25*
X46095Y43750D02*
D03*
X45505D02*
D03*
X47945Y48750D02*
D03*
X47355D02*
D03*
D26*
X43644Y42700D02*
D03*
X42956D02*
D03*
X43644Y41700D02*
D03*
X42956D02*
D03*
X41256Y41250D02*
D03*
X41944D02*
D03*
X42094Y44750D02*
D03*
X41406D02*
D03*
X44756Y46900D02*
D03*
X45444D02*
D03*
X47994Y47950D02*
D03*
X47306D02*
D03*
X44756D02*
D03*
X45444D02*
D03*
X44956Y49000D02*
D03*
X45644D02*
D03*
X44956Y49950D02*
D03*
X45644D02*
D03*
X39061Y48950D02*
D03*
X39750D02*
D03*
X42956Y43750D02*
D03*
X43644D02*
D03*
Y44600D02*
D03*
X42956D02*
D03*
X44756Y45950D02*
D03*
X45444D02*
D03*
X39056Y47950D02*
D03*
X39744D02*
D03*
X38856Y44950D02*
D03*
X39544D02*
D03*
X38856Y45850D02*
D03*
X39544D02*
D03*
X39056Y46950D02*
D03*
X39744D02*
D03*
X41944Y42100D02*
D03*
X41256D02*
D03*
X12456Y52550D02*
D03*
X13144D02*
D03*
D27*
X36450Y47306D02*
D03*
Y47994D02*
D03*
Y49344D02*
D03*
Y48656D02*
D03*
D28*
X37350Y47945D02*
D03*
Y47355D02*
D03*
Y49295D02*
D03*
Y48705D02*
D03*
D29*
X42074Y43924D02*
D03*
Y43176D02*
D03*
X41050D02*
D03*
Y43550D02*
D03*
Y43924D02*
D03*
D30*
X17000Y54150D02*
D03*
X15000D02*
D03*
D31*
X16000Y58650D02*
D03*
D32*
X11155Y52550D02*
D03*
X11745D02*
D03*
X9855D02*
D03*
X10445D02*
D03*
D33*
X30214Y30500D02*
D03*
X29486D02*
D03*
D34*
X30736Y34515D02*
D03*
Y31385D02*
D03*
X28964Y34515D02*
D03*
Y31385D02*
D03*
D35*
X46445Y23154D02*
D03*
Y22406D02*
D03*
X13550Y23024D02*
D03*
Y22276D02*
D03*
D36*
X41276Y9300D02*
D03*
X42024D02*
D03*
D41*
X11400Y58305D02*
D03*
D42*
X12400Y54131D02*
D03*
X11400D02*
D03*
X10400D02*
D03*
D44*
X26700Y45700D02*
D03*
Y46700D02*
D03*
Y47700D02*
D03*
Y48700D02*
D03*
Y49700D02*
D03*
Y50700D02*
D03*
Y51700D02*
D03*
Y52700D02*
D03*
Y53700D02*
D03*
Y54700D02*
D03*
Y55700D02*
D03*
Y56700D02*
D03*
Y57700D02*
D03*
Y58700D02*
D03*
X32700Y45700D02*
D03*
Y46700D02*
D03*
Y47700D02*
D03*
Y48700D02*
D03*
Y49700D02*
D03*
Y50700D02*
D03*
Y51700D02*
D03*
Y52700D02*
D03*
Y53700D02*
D03*
Y54700D02*
D03*
Y55700D02*
D03*
Y56700D02*
D03*
Y57700D02*
D03*
Y58700D02*
D03*
X29500Y15000D02*
D03*
X47595Y22330D02*
D03*
X41150Y10400D02*
D03*
X12400Y23150D02*
D03*
D45*
X26700Y59700D02*
D03*
X32700D02*
D03*
X47595Y23330D02*
D03*
X12400Y22150D02*
D03*
D46*
X49450Y15300D02*
D03*
Y14119D02*
D03*
D54*
X20700Y15074D02*
D03*
X21700D02*
D03*
X22700D02*
D03*
X37300Y15024D02*
D03*
X38300D02*
D03*
X39300D02*
D03*
D55*
X30500Y15000D02*
D03*
X42150Y10400D02*
D03*
D58*
X30650Y21150D02*
D03*
X38311Y19539D02*
D03*
X21789Y18211D02*
D03*
D59*
X29272Y21150D02*
D03*
D60*
X47950Y55000D02*
D03*
X43750Y48950D02*
D03*
X40750D02*
D03*
X34200Y59700D02*
D03*
X12050Y36450D02*
D03*
X47950Y33400D02*
D03*
D61*
Y56000D02*
D03*
Y57000D02*
D03*
Y58000D02*
D03*
X29450Y12500D02*
D03*
X30450D02*
D03*
X31450D02*
D03*
X43750Y47950D02*
D03*
Y46950D02*
D03*
Y45950D02*
D03*
X40750Y47950D02*
D03*
Y46950D02*
D03*
Y45950D02*
D03*
X34200Y58700D02*
D03*
Y57700D02*
D03*
Y56700D02*
D03*
X12050Y35450D02*
D03*
Y34450D02*
D03*
Y33450D02*
D03*
X47950Y34400D02*
D03*
Y35400D02*
D03*
Y36400D02*
D03*
D62*
X28450Y12500D02*
D03*
D63*
X10000Y35000D02*
D03*
X50000D02*
D03*
X30000Y10000D02*
D03*
D64*
X38311Y18161D02*
D03*
X21789Y19589D02*
D03*
D65*
X48950Y9700D02*
D03*
X25100Y57700D02*
D03*
D66*
X48950Y10700D02*
D03*
Y11700D02*
D03*
X25100Y58700D02*
D03*
Y59700D02*
D03*
M02*
