G04*
G04 #@! TF.GenerationSoftware,Altium Limited,Altium Designer,22.4.2 (48)*
G04*
G04 Layer_Color=16711935*
%FSLAX24Y24*%
%MOIN*%
G70*
G04*
G04 #@! TF.SameCoordinates,ED83B53D-03BE-4A71-8F10-75A6417481AF*
G04*
G04*
G04 #@! TF.FilePolarity,Negative*
G04*
G01*
G75*
%ADD44C,0.0618*%
%ADD45R,0.0618X0.0618*%
%ADD46C,0.0354*%
%ADD47C,0.0789*%
%ADD48R,0.0789X0.0789*%
%ADD49R,0.0690X0.0690*%
%ADD50C,0.0690*%
%ADD51R,0.0690X0.0690*%
%ADD52C,0.2330*%
%ADD53R,0.0789X0.0789*%
%ADD54R,0.0701X0.0902*%
%ADD55R,0.0618X0.0618*%
%ADD56R,0.0710X0.0710*%
%ADD57C,0.0710*%
D44*
X26700Y45700D02*
D03*
Y46700D02*
D03*
Y47700D02*
D03*
Y48700D02*
D03*
Y49700D02*
D03*
Y50700D02*
D03*
Y51700D02*
D03*
Y52700D02*
D03*
Y53700D02*
D03*
Y54700D02*
D03*
Y55700D02*
D03*
Y56700D02*
D03*
Y57700D02*
D03*
Y58700D02*
D03*
X32700Y45700D02*
D03*
Y46700D02*
D03*
Y47700D02*
D03*
Y48700D02*
D03*
Y49700D02*
D03*
Y50700D02*
D03*
Y51700D02*
D03*
Y52700D02*
D03*
Y53700D02*
D03*
Y54700D02*
D03*
Y55700D02*
D03*
Y56700D02*
D03*
Y57700D02*
D03*
Y58700D02*
D03*
X29500Y15000D02*
D03*
X47595Y22330D02*
D03*
X41150Y10400D02*
D03*
X12400Y23150D02*
D03*
D45*
X26700Y59700D02*
D03*
X32700D02*
D03*
X47595Y23330D02*
D03*
X12400Y22150D02*
D03*
D46*
X49450Y15300D02*
D03*
Y14119D02*
D03*
D47*
X30650Y21150D02*
D03*
X38311Y19539D02*
D03*
X21789Y18211D02*
D03*
D48*
X29272Y21150D02*
D03*
D49*
X47950Y55000D02*
D03*
X43750Y48950D02*
D03*
X40750D02*
D03*
X34200Y59700D02*
D03*
X12050Y36450D02*
D03*
X47950Y33400D02*
D03*
D50*
Y56000D02*
D03*
Y57000D02*
D03*
Y58000D02*
D03*
X29450Y12500D02*
D03*
X30450D02*
D03*
X31450D02*
D03*
X43750Y47950D02*
D03*
Y46950D02*
D03*
Y45950D02*
D03*
X40750Y47950D02*
D03*
Y46950D02*
D03*
Y45950D02*
D03*
X34200Y58700D02*
D03*
Y57700D02*
D03*
Y56700D02*
D03*
X12050Y35450D02*
D03*
Y34450D02*
D03*
Y33450D02*
D03*
X47950Y34400D02*
D03*
Y35400D02*
D03*
Y36400D02*
D03*
D51*
X28450Y12500D02*
D03*
D52*
X10000Y35000D02*
D03*
X50000D02*
D03*
X30000Y10000D02*
D03*
D53*
X38311Y18161D02*
D03*
X21789Y19589D02*
D03*
D54*
X20700Y15074D02*
D03*
X21700D02*
D03*
X22700D02*
D03*
X37300Y15024D02*
D03*
X38300D02*
D03*
X39300D02*
D03*
D55*
X30500Y15000D02*
D03*
X42150Y10400D02*
D03*
D56*
X48950Y9700D02*
D03*
X25100Y57700D02*
D03*
D57*
X48950Y10700D02*
D03*
Y11700D02*
D03*
X25100Y58700D02*
D03*
Y59700D02*
D03*
M02*
